<svg id="Layer_1" data-name="Layer 1" xmlns="http://www.w3.org/2000/svg" viewBox="0 0 95.79 244.44"><defs><style>.cls-1{fill:#143753;}.cls-2{fill:#eecba4;}.cls-3{fill:#412112;}.cls-4{fill:#c7c7c6;}.cls-5{fill:#e50113;}.cls-6{fill:#0c1a28;}.cls-7{fill:#fff;}.cls-8{fill:#e77678;}</style></defs><title>client</title><path class="cls-1" d="M180.81,118.06c0-.66-.05-1.32-.09-2a1.16,1.16,0,0,0-.16-.65.39.39,0,0,1-.09-.22,5.81,5.81,0,0,0-.35-1.3,1.27,1.27,0,0,1,0-.61c-.05-.09-.09-.18-.14-.28a8.13,8.13,0,0,1-.46-1.28.55.55,0,0,1,0-.42l-.1-.18c-.15,0-.25-.13-.16-.31a1.85,1.85,0,0,0,0-.23c-.14-.09-.31-.16-.21-.39s-.05-.2-.08-.31a.23.23,0,0,1-.16-.16c-.18-.44-.36-.89-.53-1.33a1.24,1.24,0,0,1,0-.18l-.06-.19a.77.77,0,0,1-.42-.8.53.53,0,0,1,0-.35.31.31,0,0,1-.08-.39.71.71,0,0,0-.32-.45c-.12,0-.17-.1-.21-.2a10.51,10.51,0,0,0-.72-1.42,1,1,0,0,1-.14-.28,8.52,8.52,0,0,0-.66-1.52,2,2,0,0,1-.21-.7l-.09-.17a.39.39,0,0,1-.18-.32c-.22-.08-.24-.1-.24-.37h0c-.21-.11-.23-.15-.2-.37s0-.24,0-.36l-.31-.45a.3.3,0,0,1-.18-.3c-.25-.14-.27-.44-.42-.65a7.92,7.92,0,0,1-.86-1.66.65.65,0,0,1-.07-.41s-.05,0-.05-.07a.38.38,0,0,1-.3-.43l-.12-.28a.3.3,0,0,1-.16-.33l-.12-.14c-.21,0-.24-.19-.24-.36h0a.19.19,0,0,1-.18-.12,1.13,1.13,0,0,1-.16-.62l0,0s-.13,0-.16-.08a5.83,5.83,0,0,1-.39-.62c-.23-.42-.44-.84-.65-1.26a.93.93,0,0,1,0-.24h0c-.06,0-.13,0-.17,0a2.68,2.68,0,0,1-.29-.7l-.07-.18c-.07,0-.17-.08-.2-.14a4.68,4.68,0,0,1-.5-1,.09.09,0,0,1,0-.08.29.29,0,0,1-.22-.28c-.21-.11-.23-.15-.2-.39s-.06-.28-.1-.42-.41-.27-.45-.55a.08.08,0,0,1,0-.07.27.27,0,0,1-.19-.31s0,0,0-.07c-.26-.09-.31-.31-.33-.54-.25-.09-.28-.34-.39-.52a2.22,2.22,0,0,1-.46-1c-.06-.1-.12-.2-.19-.3s-.12,0-.15-.09a11.8,11.8,0,0,1-.7-1.18.3.3,0,0,1-.09-.27,1.28,1.28,0,0,1-.29-.47.11.11,0,0,1-.07-.06.5.5,0,0,1-.37-.59.08.08,0,0,1-.05-.07.63.63,0,0,1-.3-.56L164,82a3,3,0,0,0-1.3-.29h-8.71c-.37,0-.74,0-1.11,0a3.49,3.49,0,0,0-1.16.1,1,1,0,0,1-.67,0,10.17,10.17,0,0,0-1.34-.15.56.56,0,0,0-.55.22,2.27,2.27,0,0,0,.7,1.27,8.12,8.12,0,0,1,1.29,1.63c.38.52.73,1,1.1,1.56,0,0,0,0,0,.06a22.53,22.53,0,0,1,1.65,2.2c.49.6.88,1.28,1.32,1.92a.32.32,0,0,1,0,.35.36.36,0,0,1-.38.15,6.28,6.28,0,0,1-.69-.24,20.33,20.33,0,0,1-2.42-.71,8.39,8.39,0,0,0-1.39-.46,1.6,1.6,0,0,0-.49,0,.26.26,0,0,0-.23.39,2.73,2.73,0,0,0,.27.54c.52.79.83,1.69,1.39,2.46.17.58.68,1,.81,1.58a.17.17,0,0,0,.06.1c.35.3.24.61.12,1s-.36,1-.51,1.51a6.4,6.4,0,0,1-.55,1.43,6.3,6.3,0,0,0-.38,1c-.19.56-.36,1.13-.53,1.7-.08.24-.3.39-.34.65s-.12.56-.15.85-.28.44-.35.71c-.2.77-.62,1.46-.79,2.25a.44.44,0,0,1-.1.22,1.74,1.74,0,0,0-.24.62,3.94,3.94,0,0,1-.41,1.08,3.67,3.67,0,0,0-.42,1.16,9.08,9.08,0,0,1-.5,1.44,22.46,22.46,0,0,0-.85,2.38c-.1.31-.21.62-.34.92-.23.53-.36,1.09-.58,1.61s-.29.89-.47,1.33a1.09,1.09,0,0,1-.09.23,2.07,2.07,0,0,0-.35,1,2.23,2.23,0,0,1-.37.9,1.34,1.34,0,0,0-.31.8.6.6,0,0,1-.08.29c-.24.53-.3,1.12-.55,1.63s-.42,1.32-.76,1.93a5.57,5.57,0,0,0-.29.81c-.16.49-.35,1-.47,1.46a7.39,7.39,0,0,1-.42,1.14,5.28,5.28,0,0,1-.45,1.07c-.06.08,0,.2-.08.3a11.56,11.56,0,0,1-.73,1.75c0,.11-.14.14-.25.16a.27.27,0,0,1-.18.13c0,.27-.07.54-.11.81a.39.39,0,0,1,.17.37v1.42a.53.53,0,0,1-.13.4,5.69,5.69,0,0,0-.6.7.23.23,0,0,1-.28.08.27.27,0,0,1-.19-.22c0-.22-.11-.44-.13-.66-.05-.45-.17-.88-.24-1.33a5.63,5.63,0,0,1,0-.92.55.55,0,0,0,0-.4c-.2,0-.37-.1-.4-.33a1.3,1.3,0,0,0-.29-.67,1.17,1.17,0,0,1-.2-.44,5.13,5.13,0,0,0-.43-1.21,4.61,4.61,0,0,1-.24-.77c-.09-.26-.17-.53-.29-.8a2.28,2.28,0,0,1-.29-1,.38.38,0,0,0-.11-.28,4.24,4.24,0,0,1-.62-1.39c-.16-.39-.24-.82-.44-1.21a1.71,1.71,0,0,1-.09-.47,10.4,10.4,0,0,0-.58-1.56,3.45,3.45,0,0,0-.14-.34l-.78-2.14c0-.11-.06-.24-.09-.35s0-.24-.08-.29c-.28-.22-.29-.54-.37-.83-.21-.75-.58-1.45-.78-2.2a.49.49,0,0,0-.06-.17,1.62,1.62,0,0,1-.31-1,.57.57,0,0,0-.17-.45,1,1,0,0,1-.29-.6,16.8,16.8,0,0,0-.62-1.81c-.2-.62-.52-1.2-.67-1.84-.09-.36-.3-.66-.41-1a37.13,37.13,0,0,0-1.46-4,2.42,2.42,0,0,1-.1-.36,3.77,3.77,0,0,0-.45-1.21,3,3,0,0,1-.29-.87c-.16-.59-.44-1.13-.63-1.71s-.46-1.14-.63-1.74a1.42,1.42,0,0,0-.14-.41,3.71,3.71,0,0,1-.33-2.1.72.72,0,0,1,.11-.35c.26-.37.5-.75.75-1.13a.53.53,0,0,0,.13-.27.82.82,0,0,1,.12-.34c.15-.31.45-.52.53-.89a4,4,0,0,1,.45-.87,3.6,3.6,0,0,1,.39-.62.53.53,0,0,0,0-.73.6.6,0,0,0-.19,0c-.63.26-1.3.37-1.94.58a7.68,7.68,0,0,0-.79.32,1.44,1.44,0,0,1-.64.16,1.1,1.1,0,0,0-.53.14,6,6,0,0,1-1.12.34.24.24,0,0,1-.31-.32,1.49,1.49,0,0,1,.17-.39L123.94,88a1.49,1.49,0,0,0,.12-.14,11.38,11.38,0,0,1,1.43-2.07,7.28,7.28,0,0,1,1.07-1.41,2.11,2.11,0,0,0,.41-.61,1.93,1.93,0,0,1,.48-.64,6.32,6.32,0,0,0,.66-.81c.15-.18,0-.36-.2-.37s-.41,0-.62,0H114.12c-.21,0-.45.08-.64-.11a.3.3,0,0,0-.32.13L112,83.09c-.61.63-1.23,1.26-1.83,1.9-.29.31-.53.68-.81,1s-.52.58-.77.88c-.11.15-.27.26-.32.45s0,.1-.05.11c-.45.14-.59.6-.89.9a2.3,2.3,0,0,0-.79,1c0,.08-.14.14-.22.21a2.82,2.82,0,0,0-.64.74.55.55,0,0,1-.25.27,1.25,1.25,0,0,0-.54.55,11.08,11.08,0,0,1-.8,1,.22.22,0,0,1-.27.09,1.82,1.82,0,0,0-.35.56.18.18,0,0,1-.08.26,1,1,0,0,0-.4.45,1,1,0,0,1-.36.41c-.15.09-.11.37-.35.39a6.93,6.93,0,0,0-.74.9,4.92,4.92,0,0,1-.71.86c-.08.08-.23.15-.26.25-.09.39-.42.57-.66.84s-.56.76-.87,1.11a13.16,13.16,0,0,0-1.09,1.4.5.5,0,0,1-.57.28l0,0a.67.67,0,0,1-.46.71l-.15.16a.56.56,0,0,1-.07.23l-1,1.26c-.45.56-.9,1.12-1.34,1.69a4.26,4.26,0,0,1-.54.58,5.7,5.7,0,0,0-1,1.27c0,.06-.08.18-.13.19-.35.08-.44.4-.62.65a4.2,4.2,0,0,1-.29.32,4.34,4.34,0,0,0-.71.92,4.88,4.88,0,0,1-.68.85c-.11.12-.09.34-.31.35a6,6,0,0,0-.38,1s0,0,0,0a4.22,4.22,0,0,0-.67,1.5,13.36,13.36,0,0,0-.47,1.39c-.14.47-.26,1-.37,1.42a3.43,3.43,0,0,0,0,.56.3.3,0,0,1-.12.26c0,1,0,2,0,3a.33.33,0,0,1,.15.25c0,.26,0,.51,0,.77a.11.11,0,0,1,.05.09,3,3,0,0,1,.65,1.22,8.84,8.84,0,0,0,.64,1.31c0,.1.12.17.16.27A9,9,0,0,0,90.9,124a5.35,5.35,0,0,0,.93,1s0,.14.06.22l0,0a.67.67,0,0,1,.51.3l.93.89a1.63,1.63,0,0,0,.33.27,1.43,1.43,0,0,1,.74.79,1.32,1.32,0,0,0,.3.1,1.42,1.42,0,0,1,.77.34,5.53,5.53,0,0,0,1.23.8c.14,0,.28.1.31.27a.1.1,0,0,1,.08.07l1.55.71c.45.2.85.48,1.28.71a2,2,0,0,0,.39.18,13.06,13.06,0,0,1,1.32.48c.39.16.77.37,1.17.52.15,0,.3.12.46.16a.36.36,0,0,1,.31.26.13.13,0,0,1,.08.07,2,2,0,0,1,1,.22,12.56,12.56,0,0,0,1.56.55l.47.15,1.41.43a4.13,4.13,0,0,0,1.3.32.29.29,0,0,1,.18,0,8.82,8.82,0,0,0,1.52.44c.49.16,1,.2,1.49.33a.56.56,0,0,1,.51.59c0,.45,0,.91,0,1.36v30.54c0,.12,0,.25,0,.37s.16.38.46.4h3.64a1.2,1.2,0,0,1,.6.06s.07.08.07.11c.08.61.18,1.22.22,1.83a9.3,9.3,0,0,1,.19,1,2,2,0,0,0,.15,1,1,1,0,0,1,0,.3,19.75,19.75,0,0,0,.33,2.18,9.87,9.87,0,0,1,.16,2,.58.58,0,0,1-.06.17V177c.11.13.2.26.12.44a1.94,1.94,0,0,0,0,.24s0,0,0,0a4.56,4.56,0,0,1,.32,2.19c0,.16,0,.32,0,.48a.51.51,0,0,1,.2.37,5.47,5.47,0,0,0,.16,1.28c.06.3,0,.62,0,.92a15.68,15.68,0,0,0,.31,1.94,1.55,1.55,0,0,1,0,.31,20.7,20.7,0,0,0,.34,2.49,2.57,2.57,0,0,1,.06.55c0,.6.23,1.17.2,1.77a.53.53,0,0,0,.07.3,1.53,1.53,0,0,1,.11.67,2.42,2.42,0,0,0,.13.84,1.6,1.6,0,0,1,0,.49,15.57,15.57,0,0,0,.36,2.62,2.86,2.86,0,0,1,0,.43,5.51,5.51,0,0,0,.21,1.57,5.13,5.13,0,0,1,.2,1.16c0,.43,0,.86.07,1.29a.45.45,0,0,1,0,.3v.19c.2.3.16.68.34,1,0,.58.22,1.12.21,1.7a1.93,1.93,0,0,0,.12.85,1.86,1.86,0,0,1,.06.48,4.56,4.56,0,0,0,.15,1.16,1.42,1.42,0,0,1,0,.36,3.51,3.51,0,0,0,.17,1.16c0,.8.31,1.57.27,2.38a4.18,4.18,0,0,0,.23,1.26,3.49,3.49,0,0,1,.12.72,3.49,3.49,0,0,0,.15,1.28,1.93,1.93,0,0,1,0,.49,3.11,3.11,0,0,0,.16,1.21.25.25,0,0,1,0,.12,12.29,12.29,0,0,0,.21,1.71,2.23,2.23,0,0,0,.15.84,1.08,1.08,0,0,1,0,.36,3,3,0,0,0,.13,1,1.93,1.93,0,0,1,0,.42,2.17,2.17,0,0,0,.13.91.27.27,0,0,1,0,.12c.08,1,.34,2,.34,3.05a3.78,3.78,0,0,0,.23,1.52,1.54,1.54,0,0,1,0,.49,1.51,1.51,0,0,0,.11.59,1.08,1.08,0,0,1,.05.79l0,.23a.45.45,0,0,1,.2.43c0,.22,0,.45,0,.68a2.23,2.23,0,0,0,.15,1,15.9,15.9,0,0,1,.24,1.82,2.2,2.2,0,0,0,.14,1.1.74.74,0,0,1,0,.3,1.5,1.5,0,0,0,0,.37c.19.59.13,1.22.3,1.82a1.42,1.42,0,0,1,0,.36,4.14,4.14,0,0,0,.2,1.21,1.14,1.14,0,0,1,0,.37,2,2,0,0,0,0,.43,4,4,0,0,1,.18,1.33,1.69,1.69,0,0,0,.11.67.94.94,0,0,1,0,.72,1.93,1.93,0,0,1,0,.24.74.74,0,0,1,.16.46,16.5,16.5,0,0,1,.3,2.42,1.19,1.19,0,0,0,.22.82,5.61,5.61,0,0,0,1.47-.11c.22-.06.38-.25.62-.25a3,3,0,0,0,.67,0,5.21,5.21,0,0,1,1.47-.1h3.64a2.55,2.55,0,0,1,.73.07,3.64,3.64,0,0,0,1,.05,1.8,1.8,0,0,1,1.07.19,6.78,6.78,0,0,0,2,.16,1.65,1.65,0,0,0,0-.91,3.69,3.69,0,0,1-.12-.79c0-.7-.1-1.39-.09-2.09a7.18,7.18,0,0,0-.23-1.95,2.68,2.68,0,0,1,0-.8,2.34,2.34,0,0,0-.13-.9,4,4,0,0,1-.11-1,3.13,3.13,0,0,0-.1-.73,1.91,1.91,0,0,1,0-.48c0-.41,0-.82,0-1.23a1.62,1.62,0,0,0-.08-.49,8.89,8.89,0,0,1-.07-2.43c0-.06,0-.13,0-.19a.62.62,0,0,1-.22-.55c0-.78-.24-1.54-.19-2.33a.48.48,0,0,0,0-.24,2,2,0,0,1-.15-.91c0-1.11-.2-2.21-.21-3.32a1.39,1.39,0,0,0-.11-.6.51.51,0,0,1-.07-.24c.06-.78-.21-1.54-.16-2.32,0-.25,0-.5,0-.74a.66.66,0,0,0,0-.25,2.62,2.62,0,0,1-.17-1.21c0-1-.2-1.92-.22-2.88a.73.73,0,0,0,0-.3,2,2,0,0,1-.12-.79c0-.35,0-.7,0-1.05a1.28,1.28,0,0,0-.09-.61.25.25,0,0,1,0-.11,21.93,21.93,0,0,0-.26-2.57c0-1.13,0-2.27-.17-3.39,0-.39-.12-.77-.17-1.16a.87.87,0,0,1,0-.48l0-.23a.46.46,0,0,1-.18-.37l0-.8a3,3,0,0,0-.13-1,1.6,1.6,0,0,1,0-.54,13,13,0,0,0-.16-1.64,4.23,4.23,0,0,1,0-1.7c0-.08,0-.16-.05-.24a.24.24,0,0,1-.14-.24c0-.25,0-.49,0-.74a2.16,2.16,0,0,0-.08-.67,1,1,0,0,1,0-.42c0-1.07-.21-2.12-.26-3.18a8.46,8.46,0,0,1-.15-2.07,2.79,2.79,0,0,0-.14-.91,2.12,2.12,0,0,1-.07-.67,13,13,0,0,0-.15-1.52,3.59,3.59,0,0,1,0-1.46c0-.08,0-.16,0-.24a1.54,1.54,0,0,1-.24-.94c0-.33,0-.66,0-1-.07-.86-.17-1.71-.31-2.56a4.33,4.33,0,0,1,0-1.72c0-.07,0-.15,0-.23s-.12-.2-.12-.32a3.72,3.72,0,0,0-.2-1.4.23.23,0,0,1,0-.12c0-.76-.1-1.51-.12-2.27a16.56,16.56,0,0,0-.1-1.73c0-.06,0-.13,0-.18a3.81,3.81,0,0,1-.18-1.46,1,1,0,0,0,0-.36,3,3,0,0,1-.14-1.22c0-.34.1-.43.45-.42l4.45,0h4.45a6.21,6.21,0,0,1,1.49,0,1.19,1.19,0,0,1,.36.94,3.37,3.37,0,0,0,.19.89c.13.58.22,1.17.37,1.73a15.53,15.53,0,0,0,.52,2.14.27.27,0,0,1,0,.13,10.77,10.77,0,0,0,.4,2.11,7.38,7.38,0,0,0,.33,1.37,1,1,0,0,1,0,.3,2.37,2.37,0,0,0,.12.79,2.84,2.84,0,0,1,.09.42,2.35,2.35,0,0,0,0,.37c.2.54.26,1.11.41,1.65a5.88,5.88,0,0,0,.31,1.38.63.63,0,0,1,0,.24,2,2,0,0,0,.23,1,.75.75,0,0,1,.1.36,10.32,10.32,0,0,0,.28,1.57,3.26,3.26,0,0,0,.3,1.18.55.55,0,0,1,0,.17,12.73,12.73,0,0,0,.26,1.64,6.4,6.4,0,0,0,.27,1.13.53.53,0,0,1,0,.12,4.37,4.37,0,0,0,.39,1.54,2.71,2.71,0,0,1,.11.91,5,5,0,0,0,.23,1.27c.1.33.15.67.25,1s.16,1,.35,1.48a1.54,1.54,0,0,1,0,.49,3.65,3.65,0,0,0,.21,1.14,3.16,3.16,0,0,1,.23,1,2.88,2.88,0,0,0,.18.77c.27.78.26,1.61.47,2.4.14.52.22,1.05.39,1.55,0,.12,0,.25,0,.37a1,1,0,0,0,.05.36,6.44,6.44,0,0,1,.35,1.55c.06.34.2.66.24,1s.08.52.09.79a1.73,1.73,0,0,0,.16.78.28.28,0,0,1,0,.12,5.73,5.73,0,0,0,.25,1.07c.18.67.24,1.37.42,2a7.22,7.22,0,0,0,.33,1.43,3.31,3.31,0,0,1,.17.83,5.06,5.06,0,0,1,.26,1.33c.21.41.11.89.31,1.31a1.36,1.36,0,0,1,0,.36,4.21,4.21,0,0,0,.09.49,4,4,0,0,1,.32,1.49,5.81,5.81,0,0,1,.32,1.37c.2.75.29,1.53.44,2.29.08.44.23.87.31,1.31s.19.83.27,1.25a12.28,12.28,0,0,1,.23,1.58.27.27,0,0,0,0,.12,9.24,9.24,0,0,1,.5,2,6.89,6.89,0,0,0,.3,1.25.52.52,0,0,1,0,.18,11.72,11.72,0,0,0,.37,1.74,5.51,5.51,0,0,1,.27,1.5c.2.69.23,1.42.49,2.09a2.35,2.35,0,0,1,.12.95v.44a5.62,5.62,0,0,1,.36,1.21,3.16,3.16,0,0,0,.42,1.31,11.11,11.11,0,0,0,1.16-.12.85.85,0,0,1,.22-.5.76.76,0,0,1,.86-.31,1.25,1.25,0,0,0,1.22-.18,4.32,4.32,0,0,1,1.93-.49,9.54,9.54,0,0,0,1.77-.14.25.25,0,0,0,.12,0,2.28,2.28,0,0,1,1.31-.21A6.08,6.08,0,0,0,170,237a3,3,0,0,1,.73,0h1.36a1.75,1.75,0,0,0,0-1.15,2.09,2.09,0,0,1-.13-.66,6.49,6.49,0,0,0-.26-1.45,6.58,6.58,0,0,1-.21-1.39,4,4,0,0,0-.24-1.52,1,1,0,0,1-.06-.36,1.12,1.12,0,0,0-.14-.59.22.22,0,0,1-.05-.17c0-.46-.21-.88-.19-1.34a2.08,2.08,0,0,0-.11-.54,1.67,1.67,0,0,1-.08-.3,9.33,9.33,0,0,0-.25-1.89c-.06-.46-.17-.92-.25-1.38a6,6,0,0,1-.25-1.51,6.66,6.66,0,0,0-.18-.91c0-.61-.24-1.21-.24-1.83a6.38,6.38,0,0,1-.32-1.62,8,8,0,0,1-.27-1.69,5.13,5.13,0,0,0-.3-1.5,6.8,6.8,0,0,1-.17-1.28,2.1,2.1,0,0,0-.18-1,.63.63,0,0,1,0-.24,1.45,1.45,0,0,0,0-.3c-.2-.61-.19-1.26-.37-1.87a1.45,1.45,0,0,1,0-.3,1.12,1.12,0,0,0,0-.37,22.5,22.5,0,0,1-.38-2.3c-.14-.71-.2-1.43-.4-2.11a7.34,7.34,0,0,1-.17-1.21,14.86,14.86,0,0,0-.25-1.51c-.06-.29-.1-.57-.13-.85a1.62,1.62,0,0,0-.17-.78.24.24,0,0,1,0-.12c0-.52-.2-1-.21-1.52,0-.06,0-.13,0-.18a3.55,3.55,0,0,1-.19-1.33,1.5,1.5,0,0,0-.09-.42,5.61,5.61,0,0,1-.37-2,3.83,3.83,0,0,0-.19-1.21c-.07-.17,0-.38-.08-.55-.19-.59-.2-1.21-.36-1.8a1.65,1.65,0,0,1,0-.31,1.61,1.61,0,0,0,0-.31,9.2,9.2,0,0,1-.27-1.57c-.09-.57-.19-1.13-.29-1.69s-.2-1-.3-1.44a1.63,1.63,0,0,1-.07-.3,10.76,10.76,0,0,0-.35-2.31,4.77,4.77,0,0,1,0-.85c0-.08,0-.16,0-.24a.72.72,0,0,1-.22-.54,10,10,0,0,0-.35-2,.55.55,0,0,1,0-.18,5.93,5.93,0,0,0-.36-1.72,1.5,1.5,0,0,1,0-.84,1.94,1.94,0,0,0,0-.24c-.11-.09-.09-.22-.1-.34a9,9,0,0,0-.18-1.28,13.48,13.48,0,0,1-.33-1.68,5.55,5.55,0,0,0-.3-1.5,1.46,1.46,0,0,1-.06-.55,6.49,6.49,0,0,0-.23-1.58c-.14-.64-.17-1.3-.34-1.93s.07-.62.55-.61,1.19,0,1.79,0a.71.71,0,0,0,.53-.1,1.22,1.22,0,0,0,.06-.6c0-1.51,0-3,0-4.51a2.12,2.12,0,0,1,.14-.79c0-.09,0-.21.15-.26a.78.78,0,0,0,.35-.56,3.3,3.3,0,0,1,.63-1.11,1.86,1.86,0,0,0,.36-.84,1.16,1.16,0,0,1,.29-.66,2.61,2.61,0,0,0,.37-.63c.36-.65.66-1.32,1-2a7.25,7.25,0,0,0,.47-1.06,4.42,4.42,0,0,1,.68-1.17.77.77,0,0,0,.2-.44,2.12,2.12,0,0,1,.31-.8c.41-.8.81-1.61,1.22-2.42s.94-1.87,1.42-2.79a1.86,1.86,0,0,0,.16-.59c0-.17.07-.33.24-.4a.32.32,0,0,0,.2-.29,3.42,3.42,0,0,1,.47-1.27,9.36,9.36,0,0,0,.47-1.07,2.34,2.34,0,0,1,.28-.6,2.17,2.17,0,0,0,.32-.67,14.28,14.28,0,0,1,1-2.18.71.71,0,0,0,.13-.35,1.71,1.71,0,0,1,.3-.93,8.06,8.06,0,0,0,.73-1.68,7.37,7.37,0,0,0,.47-1.26c.36-.29.29-.76.47-1.12a6.33,6.33,0,0,0,.43-1.15,5,5,0,0,1,.49-1,2.4,2.4,0,0,0,.21-.64,4.41,4.41,0,0,1,.3-1.06c.35-.81.56-1.66.88-2.48a5.1,5.1,0,0,1,.41-1.27c.11-.44.25-.87.35-1.3.21-.88.51-1.74.63-2.63.29-.56.17-1.22.44-1.79a.85.85,0,0,0,.06-.36C180.71,120.07,180.85,119.07,180.81,118.06Zm-67.69-11.51c0,1,0,2,0,3V121.7c0,.14,0,.29,0,.43a.24.24,0,0,1-.28.19,24.15,24.15,0,0,1-2.51-.61,3.08,3.08,0,0,0-.84-.18,2.51,2.51,0,0,1-1-.29,5.36,5.36,0,0,0-1.51-.55,3.67,3.67,0,0,1-1-.42,11.54,11.54,0,0,1-1.86-1.08c-.35-.25-.59-.62-1-.85a.17.17,0,0,1-.06-.1,2.25,2.25,0,0,1,0-1.8,6.37,6.37,0,0,0,.4-1,4.49,4.49,0,0,1,.77-1.25c.48-.62,1-1.24,1.46-1.83a14.5,14.5,0,0,1,1.19-1.16,6.38,6.38,0,0,0,.51-.53,3.9,3.9,0,0,1,.89-.83,1.61,1.61,0,0,0,.36-.33,1,1,0,0,1,.65-.43.44.44,0,0,0,.35-.39.53.53,0,0,1,.27-.38,24.16,24.16,0,0,0,2.16-1.74c.21-.16.41-.33.63-.48a.27.27,0,0,1,.35,0C113.16,106.26,113.12,106.41,113.12,106.55Zm15.94,25.07a3.69,3.69,0,0,1-1,2.28,5.66,5.66,0,0,1-3.06,1.76,12.53,12.53,0,0,1-2.51.28c-.33,0-.65-.08-1-.08a12.19,12.19,0,0,1-3.06-.41c-.31-.07-.62-.19-1-.3a24.4,24.4,0,0,1-.2-11c.1-.11.23-.08.35-.08l.92,0a2.81,2.81,0,0,0,2.37-1.23,5.07,5.07,0,0,0,.72-1.36,3,3,0,0,0,.2-1,4.34,4.34,0,0,1,.43-1.66,1.72,1.72,0,0,1,.25-.35.87.87,0,0,1,1.38,0,2,2,0,0,1,.43,1.15,11.15,11.15,0,0,1-.07,2.16,4.15,4.15,0,0,1-.23.76,2.6,2.6,0,0,0-.16,1.46,1.32,1.32,0,0,0,1,1.07,5.63,5.63,0,0,0,1.28.22,2.16,2.16,0,0,1,1.45.74,3.54,3.54,0,0,1,.82,1.23,7.56,7.56,0,0,1,.55,2.4C129.06,130.38,129.09,131,129.06,131.62Zm42.26-11.37a11,11,0,0,0-.22,1.4c-.07.86-.33,1.69-.44,2.55a1.66,1.66,0,0,1-.1.29c-.19.61-.35,1.22-.53,1.83a6,6,0,0,1-.53,1.44,1.26,1.26,0,0,0-.13.34,7.19,7.19,0,0,1-.6,1.8c-.07.15-.12.31-.19.46a8.25,8.25,0,0,1-.4,1.28,10.26,10.26,0,0,0-.49,1.19c-.27.57-.42,1.19-.69,1.77-.51,1.11-.89,2.29-1.49,3.37a1.87,1.87,0,0,0-.13.4,3.3,3.3,0,0,1-.4.9,1.88,1.88,0,0,0-.27.55,3.84,3.84,0,0,1-.3.61.4.4,0,0,1-.54.17,1.93,1.93,0,0,1-.16-.89c0-.62,0-1.24,0-1.86V103.59c0-.33,0-.66,0-1a11.31,11.31,0,0,1,.13-1.84c.34-.11.47-.11.57.12a5.57,5.57,0,0,0,.52.75,2.12,2.12,0,0,1,.33.72,2.33,2.33,0,0,0,.45.92,17.38,17.38,0,0,1,1.21,2.35c.1.22.23.43.33.65.3.65.57,1.31.93,1.93a2,2,0,0,1,.21.58,4.75,4.75,0,0,0,.58,1.35,4.11,4.11,0,0,1,.55,1.37,1.39,1.39,0,0,0,.09.35,15.82,15.82,0,0,1,1,2.59,18.91,18.91,0,0,1,.63,2.7c.06.42.19.83.22,1.27A6.68,6.68,0,0,1,171.32,120.25Z" transform="translate(-87.97 -5.47)"/><path class="cls-2" d="M169.74,46.6c0-.33-.07-.66-.09-1a5.25,5.25,0,0,0-.12-1,3.92,3.92,0,0,0-.81-1.57c-.21-.28-.56-.33-.84-.49a.5.5,0,0,0-.47.06,1.32,1.32,0,0,0-.63,1l-.1.15a.26.26,0,0,1,.07.28c-.07.24-.13.48-.2.72a10.6,10.6,0,0,0-.43,2.3c0,.35-.13.69-.16,1a13.37,13.37,0,0,0-.07,1.42,16.62,16.62,0,0,1-.26,2.82c-.17,1.14-.33,2.29-.48,3.43-.06.43-.16.84-.25,1.24-.14,0-.2,0-.2-.11s0-.49,0-.73c0-.87,0-1.73,0-2.6-.07-1.17-.1-2.35-.13-3.52s-.06-2.6-.19-3.89c-.18-1.84-.32-3.69-.61-5.52-.21-1.28-.42-2.57-.74-3.82a26.18,26.18,0,0,0-1.19-3.77,10.54,10.54,0,0,0-1.71-3c-.2-.23-.42-.46-.64-.67a4.09,4.09,0,0,0-2.52-1,4.5,4.5,0,0,0-1.46.22c-1.47.41-3,.75-4.44,1.09q-2.51.57-5,1c-.81.15-1.64.22-2.44.38a27.94,27.94,0,0,1-3,.32,25,25,0,0,1-3.46,0q-.62,0-1.23-.12c-1.06-.13-2.11-.32-3.16-.54-.67-.14-1.34-.25-2-.41-1.06-.25-2.13-.47-3.19-.69-.83-.16-1.65-.36-2.5-.45a8.09,8.09,0,0,0-1.84,0,1.32,1.32,0,0,0-1,.64,24.23,24.23,0,0,0-1.69,3.08,36.68,36.68,0,0,0-1.74,4.43c-.33,1-.66,2-.93,3.07s-.54,2.2-.79,3.3-.42,1.93-.58,2.91-.36,2-.44,3c0,.47-.13.94-.2,1.41a15.13,15.13,0,0,0-.19,1.78,1.19,1.19,0,0,1,0,.22c-.15,0-.21,0-.25-.14a14.06,14.06,0,0,1-.63-2c-.22-.86-.41-1.72-.63-2.58a1.19,1.19,0,0,1,0-.42H114a2.57,2.57,0,0,0-.58.93,2.06,2.06,0,0,0-.28,1.11,1.26,1.26,0,0,1-.1.54A1.77,1.77,0,0,0,113,52a.75.75,0,0,1,.06.49,2.92,2.92,0,0,0,.13,1.21l.42,1.28a1.3,1.3,0,0,0,.1.15c.11.2.28.36.38.56a2.26,2.26,0,0,0,1.13,1.07c.12,0,.25.1.28.23.06.3.35.51.27.86a1.18,1.18,0,0,0,.07.3c.08.4.17.79.28,1.18a8,8,0,0,0,.28.87.86.86,0,0,1,.11.29,1.5,1.5,0,0,0,.27.8c.17.25.11.55.24.82a4.13,4.13,0,0,1,.57,1.35,1.39,1.39,0,0,0,.12.28c.24.48.47,1,.72,1.43s.55,1.06.85,1.57A18.67,18.67,0,0,0,120.87,69a.31.31,0,0,1,.1.15,1.31,1.31,0,0,0,.37.56l.74.9c.37.42.72.84,1.11,1.24.13.15.41.18.49.33a1.55,1.55,0,0,0,.36.48c.45.39.88.8,1.33,1.19a8.35,8.35,0,0,0,.82.65c.85.58,1.7,1.16,2.58,1.69a2.53,2.53,0,0,1,.89.56v2.5c-.51.28-.59.34-.71.87s-.37.87-.5,1.32a.3.3,0,0,1-.39.22,1.75,1.75,0,0,0-.85,0,.65.65,0,0,1-.31,0,3.15,3.15,0,0,0-.92-.06H115c-.53,0-1.06,0-1.6.08a.76.76,0,0,0-.58.3,9.36,9.36,0,0,1-1,1c-.63.64-1.22,1.33-1.87,2a.9.9,0,0,0-.24.28,3.74,3.74,0,0,1-.82,1c-.09.11-.21.2-.29.32a20.08,20.08,0,0,1-1.79,2c-.07.08-.18.14-.21.23a2.74,2.74,0,0,1-.71.91c-.33.33-.51.8-1,1l0,0c-.29.54-.78,1-1.08,1.49a.22.22,0,0,0,.27-.09,11.08,11.08,0,0,0,.8-1,1.25,1.25,0,0,1,.54-.55.55.55,0,0,0,.25-.27,2.82,2.82,0,0,1,.64-.74c.08-.07.19-.13.22-.21a2.3,2.3,0,0,1,.79-1c.3-.3.44-.76.89-.9,0,0,0-.07.05-.11s.21-.3.32-.45c.25-.3.52-.58.77-.88s.52-.69.81-1c.6-.64,1.22-1.27,1.83-1.9l1.17-1.18a.3.3,0,0,1,.32-.13c.2,0,.41,0,.61,0h14.15a.83.83,0,0,1,.41.07,1.72,1.72,0,0,1,0-.24q.31-.85.66-1.71a.23.23,0,0,1,.18-.15s.09,0,.11,0a6.72,6.72,0,0,0,1.36.7,14.57,14.57,0,0,0,2,.66,6.18,6.18,0,0,0,1.14.2,2.53,2.53,0,0,1,.72.12,4.6,4.6,0,0,0,1.28.12h.55a3.36,3.36,0,0,1,1.22.11,1.42,1.42,0,0,0,.36,0c0,.11.14.11.24.13l.39.08a1.09,1.09,0,0,1,.93-.35,11.41,11.41,0,0,1,1.17,0,6.56,6.56,0,0,0,1.82-.2c.26-.07.53-.06.79-.11a11.38,11.38,0,0,0,2.91-.94,3.14,3.14,0,0,0,1.33-.85h0l-.13-.12c-.18-.16-.07-.37-.11-.56s.16-.18.3-.17l.41-.11a6.43,6.43,0,0,0,.89-.22c.61-.25,1.26-.35,1.86-.64a11,11,0,0,0,1.69-.82,1.1,1.1,0,0,1,.46-.19,2.14,2.14,0,0,0,.44-.18c.79-.41,1.47-1,2.26-1.38l.21-.13c.65-.56,1.31-1.11,2-1.68a8,8,0,0,0,.89-.85c.66-.79,1.36-1.54,2-2.38.47-.67.89-1.38,1.32-2.08.1-.16,0-.37.18-.52a4.41,4.41,0,0,0,.86-1.61,25.73,25.73,0,0,0,1.08-2.93c.05-.16.13-.3.19-.46s.07-.19.1-.28a5.34,5.34,0,0,1,.35-1.36.47.47,0,0,0,0-.24.88.88,0,0,1,.09-.42,1.67,1.67,0,0,0,.16-.59,3.68,3.68,0,0,0,.12-1.1.52.52,0,0,1,.14-.33.35.35,0,0,0,.06-.35,1,1,0,0,1,0-.6,3.58,3.58,0,0,0,.16-1,1,1,0,0,1,.07-.3,2.84,2.84,0,0,0,.09-1.58,1,1,0,0,1,0-.43,11.26,11.26,0,0,0,.27-1.61c.38.17.7-.11,1.05,0,0,0,.08,0,.11,0a3.1,3.1,0,0,0,1.13-1c.15-.26.23-.58.52-.75a.27.27,0,0,0,.08-.16c.09-.54.48-1,.4-1.6a.39.39,0,0,1,0-.18,1,1,0,0,0,.09-.6,1.16,1.16,0,0,1,0-.37A2,2,0,0,0,169.74,46.6Zm-44.53-8a15.61,15.61,0,0,0-2.35.51,3.1,3.1,0,0,1-.61.09.21.21,0,0,1-.2-.3,1.72,1.72,0,0,1,.22-.37,7.19,7.19,0,0,1,1.35-1.35,8.89,8.89,0,0,1,3.8-1.69,11.07,11.07,0,0,1,3.2-.12,10.2,10.2,0,0,1,2.73.73,7.65,7.65,0,0,1,3.07,2.32l0,.05c.23.3.3.57.17.66s-.4,0-.59,0a21.91,21.91,0,0,0-2.9-.59c-1.12-.14-2.25-.24-3.38-.29l-.22,0c-.52,0-1,0-1.51.08C127.09,38.41,126.13,38.45,125.21,38.62Zm7.14,10a2.85,2.85,0,0,1-2.32.78,3.06,3.06,0,0,1-2.22-1.4,3.29,3.29,0,0,1-.56-2,3.23,3.23,0,0,1,.89-2.41,2.94,2.94,0,0,1,4.58.2A3.56,3.56,0,0,1,132.35,48.64Zm14.94,18a8.94,8.94,0,0,1-.63,2,5.85,5.85,0,0,1-.38.63.41.41,0,0,1-.31.17c-.12,0-.25,0-.34.1s0,.16.07.25a5,5,0,0,1-1.77,1.8,12.15,12.15,0,0,1-1.18.64,2.63,2.63,0,0,1-1.29.35c-.21,0-.44.09-.66.1a3,3,0,0,1-1.16-.09,3.28,3.28,0,0,1-1.65-.4,7.08,7.08,0,0,1-2.48-1.78,1.25,1.25,0,0,1-.39-.82,2.2,2.2,0,0,1-.88-1.27,5.14,5.14,0,0,1-.44-1.6,1.89,1.89,0,0,0-.1-.41,1.5,1.5,0,0,1,0-.73c0-.15-.06-.33.1-.49.22.11.46.22.69.35a3.77,3.77,0,0,0,1.38.47.82.82,0,0,1,.29.09,1.35,1.35,0,0,0,.86.29.23.23,0,0,1,.12,0c.36.28.79.16,1.18.23a13.29,13.29,0,0,0,2.52.1,2.33,2.33,0,0,0,.74-.07,1.57,1.57,0,0,1,.49,0,7,7,0,0,0,2.4-.44l.48-.12a5.44,5.44,0,0,0,1.25-.5c.29-.17.64-.15.91-.37.08-.07.27,0,.26.18a1.84,1.84,0,0,1-.06.41A1.76,1.76,0,0,1,147.29,66.65Zm8.37-19.92A3.11,3.11,0,0,1,154,49a3,3,0,0,1-3.39-.48,3.46,3.46,0,0,1-1.09-2.72,3.3,3.3,0,0,1,2.28-3.14,3.54,3.54,0,0,1,.86-.09,2.93,2.93,0,0,1,2.63,1.56A3.68,3.68,0,0,1,155.66,46.73Zm3.26-7.61a.26.26,0,0,1-.29.05,16.57,16.57,0,0,0-2.21-.54,11.82,11.82,0,0,0-1.47-.2,25.92,25.92,0,0,0-4.13-.2c-.84,0-1.67.17-2.51.24-.1,0-.2.05-.31.06a17.17,17.17,0,0,0-3.25.65l-.12,0a.27.27,0,0,1-.28-.09.24.24,0,0,1,0-.29,5.44,5.44,0,0,1,1.06-1.28,9.22,9.22,0,0,1,2.91-1.72,10,10,0,0,1,3.73-.54,8.89,8.89,0,0,1,3.8.86,8.15,8.15,0,0,1,2.74,2.06,3.1,3.1,0,0,1,.37.57A.27.27,0,0,1,158.92,39.12Z" transform="translate(-87.97 -5.47)"/><path class="cls-3" d="M166.75,44.08c-.07.24-.13.48-.2.72a10.6,10.6,0,0,0-.43,2.3c0,.35-.13.69-.16,1a13.37,13.37,0,0,0-.07,1.42,16.62,16.62,0,0,1-.26,2.82c-.17,1.14-.33,2.29-.48,3.43-.06.43-.16.84-.25,1.24-.14,0-.2,0-.2-.11s0-.49,0-.73c0-.87,0-1.73,0-2.6-.07-1.17-.1-2.35-.13-3.52s-.06-2.6-.19-3.89c-.18-1.84-.32-3.69-.61-5.52-.21-1.28-.42-2.57-.74-3.82a26.18,26.18,0,0,0-1.19-3.77,10.54,10.54,0,0,0-1.71-3c-.2-.23-.42-.46-.64-.67a4.09,4.09,0,0,0-2.52-1,4.5,4.5,0,0,0-1.46.22c-1.47.41-3,.75-4.44,1.09q-2.51.57-5,1c-.81.15-1.64.22-2.44.38a27.94,27.94,0,0,1-3,.32,25,25,0,0,1-3.46,0q-.62,0-1.23-.12c-1.06-.13-2.11-.32-3.16-.54-.67-.14-1.34-.25-2-.41-1.06-.25-2.13-.47-3.19-.69-.83-.16-1.65-.36-2.5-.45a8.09,8.09,0,0,0-1.84,0,1.32,1.32,0,0,0-1,.64,24.23,24.23,0,0,0-1.69,3.08,36.68,36.68,0,0,0-1.74,4.43c-.33,1-.66,2-.93,3.07s-.54,2.2-.79,3.3-.42,1.93-.58,2.91-.36,2-.44,3c0,.47-.13.94-.2,1.41a15.13,15.13,0,0,0-.19,1.78,1.19,1.19,0,0,1,0,.22c-.15,0-.21,0-.25-.14a14.06,14.06,0,0,1-.63-2c-.22-.86-.41-1.72-.63-2.58a1.19,1.19,0,0,1,0-.42,1,1,0,0,0,.06-.23c0-.68-.23-1.33-.25-2a2.54,2.54,0,0,1-.16-1.09,1.29,1.29,0,0,0-.06-.48,1.65,1.65,0,0,1-.11-.73c0-.66,0-1.32,0-2,0-.21,0-.42-.21-.55,0-1.53,0-3.06,0-4.59a.84.84,0,0,0,.21-.62c0-.49,0-1,0-1.48a1.89,1.89,0,0,1,.1-.66,1.57,1.57,0,0,0,0-1c0-.08,0-.16,0-.24a5.82,5.82,0,0,0,.25-1.61.5.5,0,0,1,.07-.36.85.85,0,0,0,.12-.64,5.36,5.36,0,0,1,.24-1.44,3.71,3.71,0,0,0,.12-.65,1.46,1.46,0,0,1,.13-.65,1,1,0,0,0,0-.72l.09-.44a.74.74,0,0,0,.3-.57c0-.23.12-.44.16-.65s.19-.66.24-1a1.59,1.59,0,0,1,.17-.52A2.88,2.88,0,0,0,116,22a5.47,5.47,0,0,1,.52-1.68,3.06,3.06,0,0,0,.27-1v-.24a.85.85,0,0,0,0-.73c0-.12,0-.25,0-.37a2.74,2.74,0,0,0,0-1.14c0-.16,0-.32,0-.49a.54.54,0,0,0,.22-.42,1.35,1.35,0,0,1,.2-.68c.18-.34.34-.69.52-1a.53.53,0,0,0,.07-.35h0c.38-.34.65-.78,1-1.13a1.4,1.4,0,0,0,.39-.66.08.08,0,0,0,.07-.07c.33,0,.53-.27.78-.45a11.5,11.5,0,0,0,1.12-.82,1.12,1.12,0,0,1,.9-.39c.09-.11.14-.25.24-.3A14.53,14.53,0,0,1,124,9.23a1.85,1.85,0,0,0,.76-.47H125a.21.21,0,0,0,.3-.07l.2-.28.36,0a7.46,7.46,0,0,0,1.62-.44,2.55,2.55,0,0,0,.69-.23,1.2,1.2,0,0,1,.81-.24.17.17,0,0,0,.21-.16h0l.64,0a.56.56,0,0,0,.47-.21l.25,0a3.73,3.73,0,0,1,1.2-.15.6.6,0,0,0,.49-.21c.15,0,.3,0,.41-.12l1.1-.06a1.54,1.54,0,0,0,.37,0,6,6,0,0,1,2.2-.33l.43,0a.27.27,0,0,0,.23-.18l.36,0a2.9,2.9,0,0,0,1.28,0,2.59,2.59,0,0,1,.73-.12c.53,0,1.07,0,1.6,0l5.5,0a2.68,2.68,0,0,1,.85.1,1.89,1.89,0,0,0,.66.1c.77,0,1.5.25,2.26.22h.06c.41.29.93.1,1.37.32a1.28,1.28,0,0,0,.73,0c.26,0,.44.24.7.14l.37,0c.06.1.15.21.27.21a4.77,4.77,0,0,1,.84.15l.25,0c.12.17.3.17.49.18s.36,0,.48.07.51.14.73.3a.43.43,0,0,0,.41,0l.12.06a1.38,1.38,0,0,0,.67.36,5.92,5.92,0,0,1,.73.31c.23.09.54.05.65.38,0,0,.1,0,.16.07a14.7,14.7,0,0,1,1.65.91.63.63,0,0,1,.22.21,1.15,1.15,0,0,0,.89.45c.06.11.08.23.15.29a7.5,7.5,0,0,1,.9,1,1.67,1.67,0,0,0,.54.48h0A1.57,1.57,0,0,0,164,13a1.63,1.63,0,0,1,.36.9,1.14,1.14,0,0,0,.14.59.73.73,0,0,1,.07.36,13.45,13.45,0,0,1,0,1.42,4.21,4.21,0,0,0,.44,2.13,1.36,1.36,0,0,1,.16.65c0,.44.24.83.21,1.26a4.51,4.51,0,0,1,.34,1.92.74.74,0,0,0,.07.42,1.08,1.08,0,0,1,.13.66,4.1,4.1,0,0,0,0,.79,4.23,4.23,0,0,1,.13,1.22c0,.15,0,.31.07.42a1.12,1.12,0,0,1,.14.71,2.64,2.64,0,0,0,0,.8,2.91,2.91,0,0,1,.12,1c0,.66.05,1.31.06,2a.44.44,0,0,0,.17.38c0,.37,0,.73,0,1.1a1,1,0,0,0,0,.48c0,2.26,0,4.52,0,6.77a1.77,1.77,0,0,1-.1.72,1.24,1.24,0,0,0,0,.85,24.39,24.39,0,0,0-.05,3.2c0,.11.05.13.14.12A.26.26,0,0,1,166.75,44.08Z" transform="translate(-87.97 -5.47)"/><path class="cls-3" d="M183.44,245.4c-.38.08-.67.46-1.13.45a6.74,6.74,0,0,1-1.36.5,2.64,2.64,0,0,1-1.23.25,1.51,1.51,0,0,0-.93.24h-.36a.43.43,0,0,0-.41,0,1.74,1.74,0,0,1-.9.16,5,5,0,0,0-1.76.16.59.59,0,0,1-.19,0l-.86,0-8.33,0a1,1,0,0,1-.42-.05,1.82,1.82,0,0,0-.73-.1c-1.05,0-2.09,0-3.14,0a13.22,13.22,0,0,0-1.39-.18c-.07,0-.14-.08-.21-.11l-.35-.12-.06-.48a1.58,1.58,0,0,0-.08-1,1,1,0,0,1-.06-.42c0-.13,0-.28-.07-.4a16.19,16.19,0,0,0,0-2,.16.16,0,0,0-.09-.26c0-.24-.05-.48-.07-.72a.89.89,0,0,0,0-.66c0-.16.19-.29.17-.48.14-.09.28-.18.23-.39v0c.17,0,.22-.16.23-.32v-.25a11.11,11.11,0,0,0,1.16-.12c.21.2.47.09.71.11a.34.34,0,0,0,.36-.18c.14-.3.39-.31.67-.31a1.67,1.67,0,0,0,.67,0,5.15,5.15,0,0,0,1-.38,1.72,1.72,0,0,1,.88-.2c.8,0,1.59-.18,2.39-.12a.69.69,0,0,0,.24,0,1.52,1.52,0,0,1,.6-.07,2,2,0,0,0,.43,0,9.49,9.49,0,0,1,2.25-.22c.29,0,.58,0,.86,0l.24,0,.86,0c.06.1.13.17.25.09a5.89,5.89,0,0,0,1.11,0,.38.38,0,0,0,.38.08.42.42,0,0,0,.31.17c.12,0,.24,0,.36.06s0,.09.07.09l.87.19.41.1s0,.05,0,.05a4.4,4.4,0,0,1,1,.44.56.56,0,0,0,.42,0,.65.65,0,0,0,.65.27h0a.34.34,0,0,0,.33.11l.2.19a1.24,1.24,0,0,0,.51.53s.1,0,.16,0l.12.06a2.21,2.21,0,0,0,.61.61.23.23,0,0,0,.25.12.37.37,0,0,0,.18.21s0,0,0,.07c0,.19.16.18.29.2v0a.47.47,0,0,0,.35.49,1.69,1.69,0,0,0,.42.46,3.43,3.43,0,0,1,.42.86c.14.34.11.76.43,1,0,.12,0,.24,0,.36s0,.19.06.28A.69.69,0,0,1,183.44,245.4Z" transform="translate(-87.97 -5.47)"/><path class="cls-3" d="M141.89,247.9l-.34.07a.22.22,0,0,0-.17.15.08.08,0,0,0-.07,0,13.56,13.56,0,0,0-2.47.18.23.23,0,0,0-.17.16.1.1,0,0,0-.08.05c-.86-.09-1.7.23-2.57.19a.2.2,0,0,0-.11,0,1.48,1.48,0,0,1-1,.17,2,2,0,0,0-1.06.24h-.61c-.23-.05-.41.16-.65.13a5.93,5.93,0,0,0-.73,0h-.25a1,1,0,0,0-.74.24h-1.08a.31.31,0,0,0-.27.12l-3.39.05h-.74a.28.28,0,0,0-.27.12h-1.1c-.1-.14-.26-.11-.39-.12a1.79,1.79,0,0,1-.82-.18s-.07,0-.11,0h-.23a2.21,2.21,0,0,0-1-.3,1.23,1.23,0,0,1,0-1,.38.38,0,0,0,0-.4c0-.11,0-.22.08-.33a.26.26,0,0,0,.23-.27A.21.21,0,0,0,122,247a6.26,6.26,0,0,1,1-1.1,2.29,2.29,0,0,0,.56-.64c.22,0,.24-.19.36-.29.27,0,.4-.11.48-.33l0,0c.17,0,.33,0,.4-.2.13,0,.27,0,.35-.15l.41-.05a.22.22,0,0,0,.21-.18c.17-.13.32-.29.56-.27a.19.19,0,0,0,.18-.12.53.53,0,0,0,.5-.25l.23,0a.77.77,0,0,0,.88-.2.17.17,0,0,0,.22.07,4.23,4.23,0,0,1,.63-.21,6.15,6.15,0,0,1,1.35-.11,1.8,1.8,0,0,0,.61,0,4.65,4.65,0,0,1,1.7-.21h1a1.34,1.34,0,0,0,.93-.23.66.66,0,0,1,.75,0,4.24,4.24,0,0,0,1.17.35,11.65,11.65,0,0,0,1.77.16,10,10,0,0,1,2.56.23c.13.18,0,.41.15.61l.32.14,0,.24a.5.5,0,0,0,0,.36,5.65,5.65,0,0,1,.36,1.47.23.23,0,0,0,.19.21c0,.19,0,.38.07.56A2.12,2.12,0,0,1,141.89,247.9Z" transform="translate(-87.97 -5.47)"/><path class="cls-4" d="M164,82a3,3,0,0,0-1.3-.29h-8.71c-.37,0-.74,0-1.11,0a3.49,3.49,0,0,0-1.16.1,1,1,0,0,1-.67,0,10.17,10.17,0,0,0-1.34-.15.56.56,0,0,0-.55.22c-.39,0-.4,0-.5.28-.23.71-.44,1.41-.65,2.12-.16.54-.3,1.07-.45,1.61-.31,1.06-.62,2.13-.94,3.19a6.1,6.1,0,0,1-.71,1.83.2.2,0,0,1-.09-.21c0-.14.14-.26.09-.42a8.47,8.47,0,0,0-.74-1c-.47-.65-1-1.25-1.53-1.85s-1.3-1.47-1.92-2.24a.35.35,0,0,0-.26-.13,2,2,0,0,0-.27-.54c-.71-.8-1.39-1.61-2.07-2.43a1.38,1.38,0,0,1-.14-.27,1.09,1.09,0,0,1,.93-.35,11.41,11.41,0,0,1,1.17,0,6.56,6.56,0,0,0,1.82-.2c.26-.07.53-.06.79-.11a11.38,11.38,0,0,0,2.91-.94,3.14,3.14,0,0,0,1.33-.85.2.2,0,0,1,.23.16,10.08,10.08,0,0,1,.53,1.42,2.16,2.16,0,0,0,.3.61l.25-.07a1.46,1.46,0,0,1,.72,0c.35.08.73.07,1.1.13a2,2,0,0,0,.73,0,4.09,4.09,0,0,1,.92-.08c3.19,0,6.38,0,9.57,0a14.1,14.1,0,0,1,1.47.12C163.92,81.69,164,81.83,164,82Z" transform="translate(-87.97 -5.47)"/><path class="cls-4" d="M159.16,236.16a.53.53,0,0,1-.27-.46,7.43,7.43,0,0,0-.21-1c-.11-.5-.24-1-.3-1.51a13,13,0,0,0-.31-1.51q-.19-.81-.33-1.62a.45.45,0,0,0-.06-.24.92.92,0,0,1-.16-.64,1.61,1.61,0,0,0-.07-.49,6.18,6.18,0,0,1-.2-1,1.94,1.94,0,0,0-.12-.53,5.81,5.81,0,0,1-.36-1.75.36.36,0,0,0,0-.18c-.3-.45-.2-1-.35-1.48a7.93,7.93,0,0,1-.34-1.44c-.17-1.18-.45-2.33-.73-3.49a.53.53,0,0,1,0-.12,6.76,6.76,0,0,0-.39-1.93c-.09-.35-.15-.72-.22-1.08-.18-.95-.43-1.88-.55-2.84-.06-.42-.22-.83-.31-1.25s-.19-1-.29-1.51a7.3,7.3,0,0,0-.28-1.14,5.48,5.48,0,0,1-.35-1.92.9.9,0,0,0,0-.37,6.47,6.47,0,0,1-.31-1.37s0-.09,0-.12a16.07,16.07,0,0,1-.56-2.45c-.18-.69-.29-1.41-.44-2.11s-.31-1.64-.47-2.47c-.07-.32-.23-.61-.28-.94s-.16-.76-.19-1.15c0,0,0-.09,0-.12a6.42,6.42,0,0,1-.4-1.72c-.15-.56-.26-1.12-.39-1.68a.58.58,0,0,1,0-.18,14.47,14.47,0,0,0-.56-2.77c-.06-.38-.14-.77-.2-1.15-.11-.65-.31-1.28-.42-1.93a17.09,17.09,0,0,1-.47-2.47,1.1,1.1,0,0,0,0-.18,15.58,15.58,0,0,1-.44-1.79l-.18-1c-.14-.69-.33-1.36-.5-2a10.52,10.52,0,0,1-.22-1.27,2.12,2.12,0,0,0-.16-.77,4.11,4.11,0,0,1-.2-.95c-.28-1.22-.53-2.45-.79-3.68-.08-.36-.14-.72-.21-1.08v-.06a4,4,0,0,1-.29-1.31c-.07-.42-.16-.84-.25-1.26a2.17,2.17,0,0,0-.07-.24c-.11-.34-.18-.4-.53-.41s-.66,0-1,0H134.9a1.94,1.94,0,0,1-.69-.06.33.33,0,0,0-.17.4,11.56,11.56,0,0,1,.22,2.2.39.39,0,0,0,.05.24,1.44,1.44,0,0,1,.18.95c0,.49,0,1,0,1.48a3.58,3.58,0,0,0,.08.86,4.14,4.14,0,0,1,0,.79,1.1,1.1,0,0,0,0,.49,2,2,0,0,1,.19,1.14,1.39,1.39,0,0,1-.07.78c-.14-.07-.12-.2-.12-.32a3.72,3.72,0,0,0-.2-1.4.23.23,0,0,1,0-.12c0-.76-.1-1.51-.12-2.27a16.56,16.56,0,0,0-.1-1.73c0-.06,0-.13,0-.18a3.81,3.81,0,0,1-.18-1.46,1,1,0,0,0,0-.36,3,3,0,0,1-.14-1.22c0-.34.1-.43.45-.42l4.45,0h4.45a6.21,6.21,0,0,1,1.49,0,1.19,1.19,0,0,1,.36.94,3.37,3.37,0,0,0,.19.89c.13.58.22,1.17.37,1.73a15.53,15.53,0,0,0,.52,2.14.27.27,0,0,1,0,.13,10.77,10.77,0,0,0,.4,2.11,7.38,7.38,0,0,0,.33,1.37,1,1,0,0,1,0,.3,2.37,2.37,0,0,0,.12.79,2.84,2.84,0,0,1,.09.42,2.35,2.35,0,0,0,0,.37c.2.54.26,1.11.41,1.65a5.88,5.88,0,0,0,.31,1.38.63.63,0,0,1,0,.24,2,2,0,0,0,.23,1,.75.75,0,0,1,.1.36,10.32,10.32,0,0,0,.28,1.57,3.26,3.26,0,0,0,.3,1.18.55.55,0,0,1,0,.17,12.73,12.73,0,0,0,.26,1.64,6.4,6.4,0,0,0,.27,1.13.53.53,0,0,1,0,.12,4.37,4.37,0,0,0,.39,1.54,2.71,2.71,0,0,1,.11.91,5,5,0,0,0,.23,1.27c.1.33.15.67.25,1s.16,1,.35,1.48a1.54,1.54,0,0,1,0,.49,3.65,3.65,0,0,0,.21,1.14,3.16,3.16,0,0,1,.23,1,2.88,2.88,0,0,0,.18.77c.27.78.26,1.61.47,2.4.14.52.22,1.05.39,1.55,0,.12,0,.25,0,.37a1,1,0,0,0,.05.36,6.44,6.44,0,0,1,.35,1.55c.06.34.2.66.24,1s.08.52.09.79a1.73,1.73,0,0,0,.16.78.28.28,0,0,1,0,.12,5.73,5.73,0,0,0,.25,1.07c.18.67.24,1.37.42,2a7.22,7.22,0,0,0,.33,1.43,3.31,3.31,0,0,1,.17.83,5.06,5.06,0,0,1,.26,1.33c.21.41.11.89.31,1.31a1.36,1.36,0,0,1,0,.36,4.21,4.21,0,0,0,.09.49,4,4,0,0,1,.32,1.49,5.81,5.81,0,0,1,.32,1.37c.2.75.29,1.53.44,2.29.08.44.23.87.31,1.31s.19.83.27,1.25a12.28,12.28,0,0,1,.23,1.58.27.27,0,0,0,0,.12,9.24,9.24,0,0,1,.5,2,6.89,6.89,0,0,0,.3,1.25.52.52,0,0,1,0,.18,11.72,11.72,0,0,0,.37,1.74,5.51,5.51,0,0,1,.27,1.5c.2.69.23,1.42.49,2.09A2.35,2.35,0,0,1,159.16,236.16Z" transform="translate(-87.97 -5.47)"/><path class="cls-4" d="M181,119.27c0,.23,0,.45-.07.67a5,5,0,0,0,0,.86,3.06,3.06,0,0,1-.12.85c-.09.32-.08.66-.17,1-.16.49-.24,1-.37,1.5-.24.95-.48,1.91-.75,2.86-.22.77-.5,1.52-.75,2.28a12.06,12.06,0,0,0-.41,1.29c-.06.25-.23.43-.28.68a9.83,9.83,0,0,0-.29,1.13,1.5,1.5,0,0,1-.3.73,6.36,6.36,0,0,0-.55,1.36c-.17.49-.38,1-.58,1.42,0,.06-.08.1-.09.16a8.13,8.13,0,0,1-.51,1.38,11.09,11.09,0,0,1-.83,1.86.79.79,0,0,0-.13.28,10.85,10.85,0,0,1-.79,2c-.16.45-.38.87-.58,1.3-.29.63-.6,1.25-.88,1.89-.15.33-.28.68-.41,1s-.11.48-.38.61a.27.27,0,0,0-.11.27,1.83,1.83,0,0,1-.39,1.08,2.72,2.72,0,0,0-.27.42,7.09,7.09,0,0,1-.4,1c-.18.32-.39.62-.55,1a25.79,25.79,0,0,1-1.18,2.35,1.67,1.67,0,0,0-.32.86.64.64,0,0,1-.14.34c-.13.18-.24.38-.37.56a3.1,3.1,0,0,0-.39.77,4,4,0,0,1-.25.56c-.34.63-.63,1.28-1,1.9-.15.24-.25.52-.39.77a1.22,1.22,0,0,1-.31.44.69.69,0,0,0-.21.5,1.76,1.76,0,0,1-.39.95,4.81,4.81,0,0,0-.58,1,1.42,1.42,0,0,1-.29.54,1.32,1.32,0,0,0-.35,1v4.76a1,1,0,0,1-.06.49.49.49,0,0,1-.4.11h-2a.56.56,0,0,0-.44.1,20.08,20.08,0,0,0,.38,2.28,6.37,6.37,0,0,1,.18,1.16,1.88,1.88,0,0,0,.21,1,.47.47,0,0,1,0,.24,15,15,0,0,0,.31,1.88,9.47,9.47,0,0,1,.33,2.31.39.39,0,0,1-.07.29c-.11-.09-.09-.22-.1-.34a9,9,0,0,0-.18-1.28,13.48,13.48,0,0,1-.33-1.68,5.55,5.55,0,0,0-.3-1.5,1.46,1.46,0,0,1-.06-.55,6.49,6.49,0,0,0-.23-1.58c-.14-.64-.17-1.3-.34-1.93s.07-.62.55-.61,1.19,0,1.79,0a.71.71,0,0,0,.53-.1,1.22,1.22,0,0,0,.06-.6c0-1.51,0-3,0-4.51a2.12,2.12,0,0,1,.14-.79c0-.09,0-.21.15-.26a.78.78,0,0,0,.35-.56,3.3,3.3,0,0,1,.63-1.11,1.86,1.86,0,0,0,.36-.84,1.16,1.16,0,0,1,.29-.66,2.61,2.61,0,0,0,.37-.63c.36-.65.66-1.32,1-2a7.25,7.25,0,0,0,.47-1.06,4.42,4.42,0,0,1,.68-1.17.77.77,0,0,0,.2-.44,2.12,2.12,0,0,1,.31-.8c.41-.8.81-1.61,1.22-2.42s.94-1.87,1.42-2.79a1.86,1.86,0,0,0,.16-.59c0-.17.07-.33.24-.4a.32.32,0,0,0,.2-.29,3.42,3.42,0,0,1,.47-1.27,9.36,9.36,0,0,0,.47-1.07,2.34,2.34,0,0,1,.28-.6,2.17,2.17,0,0,0,.32-.67,14.28,14.28,0,0,1,1-2.18.71.71,0,0,0,.13-.35,1.71,1.71,0,0,1,.3-.93,8.06,8.06,0,0,0,.73-1.68,7.37,7.37,0,0,0,.47-1.26c.36-.29.29-.76.47-1.12a6.33,6.33,0,0,0,.43-1.15,5,5,0,0,1,.49-1,2.4,2.4,0,0,0,.21-.64,4.41,4.41,0,0,1,.3-1.06c.35-.81.56-1.66.88-2.48a5.1,5.1,0,0,1,.41-1.27c.11-.44.25-.87.35-1.3.21-.88.51-1.74.63-2.63.29-.56.17-1.22.44-1.79a.85.85,0,0,0,.06-.36c0-1,.13-2,.09-3,0-.66-.05-1.32-.09-2a1.16,1.16,0,0,0-.16-.65.39.39,0,0,1-.09-.22,5.81,5.81,0,0,0-.35-1.3,1.27,1.27,0,0,1,0-.61.22.22,0,0,1,.16.16c.08.58.4,1.08.43,1.67a.43.43,0,0,0,.1.22.82.82,0,0,1,.12.41C180.9,116.93,181.09,118.09,181,119.27Z" transform="translate(-87.97 -5.47)"/><path class="cls-4" d="M172.37,237.46l-.24,0c0-.16,0-.32,0-.48a1.75,1.75,0,0,0,0-1.15,2.09,2.09,0,0,1-.13-.66,6.49,6.49,0,0,0-.26-1.45,6.58,6.58,0,0,1-.21-1.39,4,4,0,0,0-.24-1.52,1,1,0,0,1-.06-.36,1.12,1.12,0,0,0-.14-.59.22.22,0,0,1-.05-.17c0-.46-.21-.88-.19-1.34a2.08,2.08,0,0,0-.11-.54,1.67,1.67,0,0,1-.08-.3,9.33,9.33,0,0,0-.25-1.89c-.06-.46-.17-.92-.25-1.38a6,6,0,0,1-.25-1.51,6.66,6.66,0,0,0-.18-.91c0-.61-.24-1.21-.24-1.83a6.38,6.38,0,0,1-.32-1.62,8,8,0,0,1-.27-1.69,5.13,5.13,0,0,0-.3-1.5,6.8,6.8,0,0,1-.17-1.28,2.1,2.1,0,0,0-.18-1,.63.63,0,0,1,0-.24,1.45,1.45,0,0,0,0-.3c-.2-.61-.19-1.26-.37-1.87a1.45,1.45,0,0,1,0-.3,1.12,1.12,0,0,0,0-.37,22.5,22.5,0,0,1-.38-2.3c-.14-.71-.2-1.43-.4-2.11a7.34,7.34,0,0,1-.17-1.21,14.86,14.86,0,0,0-.25-1.51c-.06-.29-.1-.57-.13-.85a1.62,1.62,0,0,0-.17-.78.24.24,0,0,1,0-.12c0-.52-.2-1-.21-1.52,0-.06,0-.13,0-.18a3.55,3.55,0,0,1-.19-1.33,1.5,1.5,0,0,0-.09-.42,5.61,5.61,0,0,1-.37-2,3.83,3.83,0,0,0-.19-1.21c-.07-.17,0-.38-.08-.55-.19-.59-.2-1.21-.36-1.8a1.65,1.65,0,0,1,0-.31,1.61,1.61,0,0,0,0-.31,9.2,9.2,0,0,1-.27-1.57c-.09-.57-.19-1.13-.29-1.69s-.2-1-.3-1.44a1.63,1.63,0,0,1-.07-.3,10.76,10.76,0,0,0-.35-2.31,4.77,4.77,0,0,1,0-.85.27.27,0,0,1,.17.24,4.37,4.37,0,0,0,.19,1.08c.1.46.13.94.19,1.41,0,.12,0,.27,0,.36.29.44.19,1,.32,1.43s.15,1,.26,1.45c.15.72.2,1.46.34,2.19.11.54.17,1.09.27,1.63a9.65,9.65,0,0,0,.32,1.51.79.79,0,0,1,0,.3,8.4,8.4,0,0,0,.14,1.59,6.11,6.11,0,0,0,.23,1,2.35,2.35,0,0,1,.14.79,1.62,1.62,0,0,0,.15.78.57.57,0,0,1,.07.29,10.17,10.17,0,0,0,.34,2.13,1,1,0,0,1,0,.24,7,7,0,0,0,.2,1.28,5.92,5.92,0,0,1,.2,1.52,1,1,0,0,0,.16.76.48.48,0,0,1,.06.24c0,.68.24,1.33.33,2a8.65,8.65,0,0,1,.19,1.34,1.09,1.09,0,0,0,0,.31c.23,1,.31,2,.55,3a3.66,3.66,0,0,0,.23,1,1.35,1.35,0,0,1,0,.61,5.24,5.24,0,0,0,.11,1,7.21,7.21,0,0,0,.19.9,7.08,7.08,0,0,1,.2,1.15c0,.16,0,.32.07.48.14.77.28,1.54.4,2.31.16,1,.26,1.9.5,2.84a1.14,1.14,0,0,1,0,.37,2.58,2.58,0,0,0,.14.91,1,1,0,0,1,.08.23c0,.89.35,1.73.42,2.61s.24,1.67.37,2.49a3.32,3.32,0,0,0,.25,1,.57.57,0,0,1,.08.29,4.51,4.51,0,0,0,.2,1.21,1.59,1.59,0,0,1,.06.37,9.65,9.65,0,0,0,.42,2.72,2,2,0,0,1,.07.42,3.44,3.44,0,0,0,.21,1.15,2.29,2.29,0,0,1,.05.74C172.37,237,172.37,237.21,172.37,237.46Z" transform="translate(-87.97 -5.47)"/><path class="cls-4" d="M119,176.49a.58.58,0,0,1-.06.17.35.35,0,0,1-.15-.38c0-.62-.16-1.22-.15-1.84a4.22,4.22,0,0,0-.14-.79c-.14-.66-.13-1.35-.33-2a19.09,19.09,0,0,0-.27-2.26c0-.4-.11-.8-.17-1.19a1.09,1.09,0,0,0-.63-.08h-3.46c-.55,0-.65-.11-.67-.64,0-.15,0-.29,0-.43V135.82a5.07,5.07,0,0,0,0-.55.46.46,0,0,0-.34-.41,2.09,2.09,0,0,0-.66-.13,2,2,0,0,1-.89-.19,3.28,3.28,0,0,0-1-.2.61.61,0,0,1-.44-.17.6.6,0,0,0-.5-.19,1.78,1.78,0,0,1-1-.24,1.4,1.4,0,0,0-.41-.13,7,7,0,0,1-1.34-.42c-.34-.15-.71-.22-1.06-.34a9,9,0,0,1-.86-.34,1.71,1.71,0,0,0-.59-.15.21.21,0,0,1-.21-.19,2,2,0,0,1,1,.22,12.56,12.56,0,0,0,1.56.55l.47.15,1.41.43a4.13,4.13,0,0,0,1.3.32.29.29,0,0,1,.18,0,8.82,8.82,0,0,0,1.52.44c.49.16,1,.2,1.49.33a.56.56,0,0,1,.51.59c0,.45,0,.91,0,1.36v30.54c0,.12,0,.25,0,.37s.16.38.46.4h3.64a1.2,1.2,0,0,1,.6.06s.07.08.07.11c.08.61.18,1.22.22,1.83a9.3,9.3,0,0,1,.19,1,2,2,0,0,0,.15,1,1,1,0,0,1,0,.3,19.75,19.75,0,0,0,.33,2.18A9.87,9.87,0,0,1,119,176.49Z" transform="translate(-87.97 -5.47)"/><path class="cls-4" d="M125.65,225.79c-.05,0-.12-.08-.13-.13a6.81,6.81,0,0,1-.3-1.69c0-.3-.13-.59-.14-.9a17.12,17.12,0,0,0-.24-2.27c-.13-.66-.12-1.34-.31-2a7.59,7.59,0,0,1-.15-1.28c-.1-1-.3-2-.43-3-.08-.66-.17-1.3-.23-2s-.17-1.38-.26-2.07c-.12-.85-.25-1.7-.34-2.56,0-.26-.09-.52-.13-.79a14.23,14.23,0,0,1-.24-1.95,6.85,6.85,0,0,0-.13-.79c-.1-.69-.19-1.38-.26-2.08a15.92,15.92,0,0,0-.31-1.81,1.06,1.06,0,0,1,0-.61c.2.3.16.68.34,1,0,.58.22,1.12.21,1.7a1.93,1.93,0,0,0,.12.85,1.86,1.86,0,0,1,.06.48,4.56,4.56,0,0,0,.15,1.16,1.42,1.42,0,0,1,0,.36,3.51,3.51,0,0,0,.17,1.16c0,.8.31,1.57.27,2.38a4.18,4.18,0,0,0,.23,1.26,3.49,3.49,0,0,1,.12.72,3.49,3.49,0,0,0,.15,1.28,1.93,1.93,0,0,1,0,.49,3.11,3.11,0,0,0,.16,1.21.25.25,0,0,1,0,.12,12.29,12.29,0,0,0,.21,1.71,2.23,2.23,0,0,0,.15.84,1.08,1.08,0,0,1,0,.36,3,3,0,0,0,.13,1,1.93,1.93,0,0,1,0,.42,2.17,2.17,0,0,0,.13.91.27.27,0,0,1,0,.12c.08,1,.34,2,.34,3.05a3.78,3.78,0,0,0,.23,1.52,1.54,1.54,0,0,1,0,.49,1.51,1.51,0,0,0,.11.59A1.08,1.08,0,0,1,125.65,225.79Z" transform="translate(-87.97 -5.47)"/><path class="cls-4" d="M139.66,228.54a.62.62,0,0,1-.22-.55c0-.78-.24-1.54-.19-2.33a.48.48,0,0,0,0-.24,2,2,0,0,1-.15-.91c0-1.11-.2-2.21-.21-3.32a1.39,1.39,0,0,0-.11-.6.51.51,0,0,1-.07-.24c.06-.78-.21-1.54-.16-2.32,0-.25,0-.5,0-.74a.66.66,0,0,0,0-.25,2.62,2.62,0,0,1-.17-1.21c0-1-.2-1.92-.22-2.88a.73.73,0,0,0,0-.3,2,2,0,0,1-.12-.79c0-.35,0-.7,0-1.05a1.28,1.28,0,0,0-.09-.61.25.25,0,0,1,0-.11,21.93,21.93,0,0,0-.26-2.57c0-1.13,0-2.27-.17-3.39,0-.39-.12-.77-.17-1.16a.87.87,0,0,1,0-.48.26.26,0,0,1,.17.24,9.77,9.77,0,0,0,.22,1.52,10.2,10.2,0,0,1,0,1.11,6.51,6.51,0,0,0,.1,1.59,2.06,2.06,0,0,1,0,.43,5.45,5.45,0,0,0,.2,1.71.58.58,0,0,1,0,.18c0,.72.18,1.43.14,2.15a3.9,3.9,0,0,0,.16,1.4.8.8,0,0,1,.06.3c0,.75.16,1.47.16,2.21a6.12,6.12,0,0,0,.13,1.35,6.75,6.75,0,0,1,.12,1.34,5.83,5.83,0,0,0,.09,1.1c.08.44.05.9.14,1.35a17.18,17.18,0,0,1,.16,1.9c.08.63.11,1.26.17,1.89a18.56,18.56,0,0,1,.19,2,9.69,9.69,0,0,0,.17,1.52A2.15,2.15,0,0,1,139.66,228.54Z" transform="translate(-87.97 -5.47)"/><path class="cls-4" d="M122.05,199.67a.3.3,0,0,1-.14-.32,15.08,15.08,0,0,0-.15-1.78,7.14,7.14,0,0,0-.15-.78,14,14,0,0,1-.22-1.58c-.07-.72-.23-1.42-.3-2.13s-.19-1.42-.29-2.13c-.13-.87-.19-1.75-.35-2.62-.08-.44-.1-.89-.18-1.34-.12-.72-.24-1.46-.31-2.18a18.42,18.42,0,0,1-.3-2.45,1,1,0,0,0,0-.42,1.53,1.53,0,0,1-.08-.73c0-.29-.15-.55,0-.84a.51.51,0,0,1,.2.37,5.47,5.47,0,0,0,.16,1.28c.06.3,0,.62,0,.92a15.68,15.68,0,0,0,.31,1.94,1.55,1.55,0,0,1,0,.31,20.7,20.7,0,0,0,.34,2.49,2.57,2.57,0,0,1,.06.55c0,.6.23,1.17.2,1.77a.53.53,0,0,0,.07.3,1.53,1.53,0,0,1,.11.67,2.42,2.42,0,0,0,.13.84,1.6,1.6,0,0,1,0,.49,15.57,15.57,0,0,0,.36,2.62,2.86,2.86,0,0,1,0,.43,5.51,5.51,0,0,0,.21,1.57,5.13,5.13,0,0,1,.2,1.16c0,.43,0,.86.07,1.29A.45.45,0,0,1,122.05,199.67Z" transform="translate(-87.97 -5.47)"/><path class="cls-4" d="M166.7,30.56a.44.44,0,0,1-.17-.38c0-.66,0-1.31-.06-2a2.91,2.91,0,0,0-.12-1,2.64,2.64,0,0,1,0-.8,1.12,1.12,0,0,0-.14-.71c-.09-.11-.06-.27-.07-.42a4.23,4.23,0,0,0-.13-1.22,4.1,4.1,0,0,1,0-.79,1.08,1.08,0,0,0-.13-.66.74.74,0,0,1-.07-.42,4.51,4.51,0,0,0-.34-1.92c0-.43-.23-.82-.21-1.26a1.36,1.36,0,0,0-.16-.65,4.21,4.21,0,0,1-.44-2.13,13.45,13.45,0,0,0,0-1.42.73.73,0,0,0-.07-.36,1.14,1.14,0,0,1-.14-.59A1.63,1.63,0,0,0,164,13a1.57,1.57,0,0,1-.41-.87.24.24,0,0,1,.2.12l.55,1a1.4,1.4,0,0,1,.21.7.56.56,0,0,0,.06.29,2,2,0,0,1,.18,1.09c0,.41,0,.82,0,1.23a3,3,0,0,0,.32,1.48,5.33,5.33,0,0,1,.32,1.12,8.66,8.66,0,0,0,.3,1.5,3.37,3.37,0,0,1,.18,1.27,1.05,1.05,0,0,0,.17.77.67.67,0,0,1,.07.42c0,.74.17,1.47.14,2.21a.37.37,0,0,0,0,.24c.24.24.17.53.18.81a3.87,3.87,0,0,0,.1,1.17,1.22,1.22,0,0,1,0,.43c0,.34,0,.69.09,1A4,4,0,0,1,166.7,30.56Z" transform="translate(-87.97 -5.47)"/><path class="cls-4" d="M178.43,246.85s0,.09-.06.1a4.23,4.23,0,0,1-1,.22c-.18,0-.37,0-.55,0a14.63,14.63,0,0,0-2.2.2,5.25,5.25,0,0,1-.56,0h-6.54c-.39,0-.78-.06-1.16-.09a4.21,4.21,0,0,1-1.17-.1,1.59,1.59,0,0,0-.49,0c-1,0-1.93,0-2.9,0-.48,0-.93-.15-1.4-.15a1,1,0,0,1-.6-.29s0-.12,0-.17l.35.12c.07,0,.14.11.21.11a13.22,13.22,0,0,1,1.39.18c1.05,0,2.09,0,3.14,0a1.82,1.82,0,0,1,.73.1,1,1,0,0,0,.42.05l8.33,0,.86,0a.59.59,0,0,0,.19,0,5,5,0,0,1,1.76-.16,1.74,1.74,0,0,0,.9-.16A.43.43,0,0,1,178.43,246.85Z" transform="translate(-87.97 -5.47)"/><path class="cls-4" d="M141.21,243.94l-.32-.14c-.13-.2,0-.43-.15-.61a1.44,1.44,0,0,0,0-.62,1.65,1.65,0,0,0,0-.91,3.69,3.69,0,0,1-.12-.79c0-.7-.1-1.39-.09-2.09a7.18,7.18,0,0,0-.23-1.95,2.68,2.68,0,0,1,0-.8,2.34,2.34,0,0,0-.13-.9,4,4,0,0,1-.11-1,3.13,3.13,0,0,0-.1-.73,1.91,1.91,0,0,1,0-.48c0-.41,0-.82,0-1.23a1.62,1.62,0,0,0-.08-.49,8.89,8.89,0,0,1-.07-2.43.37.37,0,0,1,.13.33c0,.26,0,.53,0,.8a5.16,5.16,0,0,0,.19,1.52,1.18,1.18,0,0,1,.05.37,13.42,13.42,0,0,0,.13,2.28c.08.44.14.88.21,1.33a2.7,2.7,0,0,1,0,.49,6.15,6.15,0,0,0,.19,1.71,1.54,1.54,0,0,1,.05.43c0,.35,0,.7,0,1a16.88,16.88,0,0,0,.21,2.45,4.14,4.14,0,0,1,.06,1.22,1.15,1.15,0,0,0,.3,1.08S141.27,243.91,141.21,243.94Z" transform="translate(-87.97 -5.47)"/><path class="cls-4" d="M153.07,6.64c-.26.1-.44-.18-.7-.14a1.28,1.28,0,0,1-.73,0c-.44-.22-1,0-1.37-.32h-.06c-.76,0-1.49-.24-2.26-.22a1.89,1.89,0,0,1-.66-.1,2.68,2.68,0,0,0-.85-.1l-5.5,0c-.53,0-1.07,0-1.6,0a2.59,2.59,0,0,0-.73.12,2.9,2.9,0,0,1-1.28,0,.28.28,0,0,1,.3-.17,4.89,4.89,0,0,0,1.52-.2,2,2,0,0,1,.49,0h6.54a7.4,7.4,0,0,1,1.15.16c.1,0,.2.07.3.07a14.26,14.26,0,0,1,1.84.15,3.5,3.5,0,0,1,.91.12,6.67,6.67,0,0,1,1.25.29,1,1,0,0,0,.42,0l.68,0A.34.34,0,0,1,153.07,6.64Z" transform="translate(-87.97 -5.47)"/><path class="cls-4" d="M127.38,238.65a.22.22,0,0,1-.15-.18c0-.71-.25-1.41-.28-2.13a13,13,0,0,0-.29-1.75c0-.13,0-.24-.06-.37a12.78,12.78,0,0,0-.34-2.37.27.27,0,0,1,0-.12c0-.68-.21-1.34-.15-2a2.11,2.11,0,0,0-.06-.55,9,9,0,0,1-.32-2,7.89,7.89,0,0,1-.09-.85c0-.11,0-.21.07-.29a.45.45,0,0,1,.2.43c0,.22,0,.45,0,.68a2.23,2.23,0,0,0,.15,1,15.9,15.9,0,0,1,.24,1.82,2.2,2.2,0,0,0,.14,1.1.74.74,0,0,1,0,.3,1.5,1.5,0,0,0,0,.37c.19.59.13,1.22.3,1.82a1.42,1.42,0,0,1,0,.36,4.14,4.14,0,0,0,.2,1.21,1.14,1.14,0,0,1,0,.37,2,2,0,0,0,0,.43,4,4,0,0,1,.18,1.33,1.69,1.69,0,0,0,.11.67A.94.94,0,0,1,127.38,238.65Z" transform="translate(-87.97 -5.47)"/><path class="cls-4" d="M136.53,195.94a.24.24,0,0,1-.14-.24c0-.25,0-.49,0-.74a2.16,2.16,0,0,0-.08-.67,1,1,0,0,1,0-.42c0-1.07-.21-2.12-.26-3.18a8.46,8.46,0,0,1-.15-2.07,2.79,2.79,0,0,0-.14-.91,2.12,2.12,0,0,1-.07-.67,13,13,0,0,0-.15-1.52,3.59,3.59,0,0,1,0-1.46.23.23,0,0,1,.15.18c0,.18,0,.37,0,.55a8,8,0,0,0,.2,1.83,1.5,1.5,0,0,1,0,.37,8.38,8.38,0,0,0,.11,1.22,7.59,7.59,0,0,1,0,1.35,3.11,3.11,0,0,0,.11.91,3.3,3.3,0,0,1,.12,1,3,3,0,0,0,.08.79,5.64,5.64,0,0,1,.06,1.23,1.5,1.5,0,0,0,.15.78.21.21,0,0,1,0,.11A4.84,4.84,0,0,1,136.53,195.94Z" transform="translate(-87.97 -5.47)"/><path class="cls-4" d="M96.73,100.81a.56.56,0,0,1-.07.23l-1,1.26c-.45.56-.9,1.12-1.34,1.69a4.26,4.26,0,0,1-.54.58,5.7,5.7,0,0,0-1,1.27c0,.06-.08.18-.13.19-.35.08-.44.4-.62.65a4.2,4.2,0,0,1-.29.32,4.34,4.34,0,0,0-.71.92,4.88,4.88,0,0,1-.68.85c-.11.12-.09.34-.31.35a.84.84,0,0,1,.35-.75c.47-.46.74-1.09,1.23-1.53a2.48,2.48,0,0,0,.33-.45c0-.07.06-.17.13-.21.6-.39.83-1.11,1.33-1.57s1.06-1.36,1.67-2a5.26,5.26,0,0,0,.66-.89,7.89,7.89,0,0,1,.76-.87A.44.44,0,0,1,96.73,100.81Z" transform="translate(-87.97 -5.47)"/><path class="cls-4" d="M103.38,93a1,1,0,0,0-.4.45,1,1,0,0,1-.36.41c-.15.09-.11.37-.35.39a6.93,6.93,0,0,0-.74.9,4.92,4.92,0,0,1-.71.86c-.08.08-.23.15-.26.25-.09.39-.42.57-.66.84s-.56.76-.87,1.11a13.16,13.16,0,0,0-1.09,1.4.5.5,0,0,1-.57.28c.39-.5.76-1,1.18-1.49A17.72,17.72,0,0,0,99.69,97c.07-.08.1-.19.21-.21a.54.54,0,0,0,.43-.47.57.57,0,0,1,.25-.34,1.92,1.92,0,0,0,.57-.63,6.3,6.3,0,0,1,.89-1.1c.13-.16.25-.31.37-.48s.25-.24.36-.4a1.17,1.17,0,0,1,.69-.58A.18.18,0,0,1,103.38,93Z" transform="translate(-87.97 -5.47)"/><path class="cls-4" d="M166.91,32.39c0,2.08,0,4.15,0,6.22,0,.58-.15,1.13-.15,1.71,0,.09-.08.13-.16.16a1.24,1.24,0,0,1,0-.85,1.77,1.77,0,0,0,.1-.72c0-2.25,0-4.51,0-6.77a1,1,0,0,1,0-.48.28.28,0,0,1,.16.24C166.91,32.07,166.91,32.23,166.91,32.39Z" transform="translate(-87.97 -5.47)"/><path class="cls-4" d="M163.59,12.11a1.67,1.67,0,0,1-.54-.48,7.5,7.5,0,0,0-.9-1c-.07-.06-.09-.18-.15-.29a1.15,1.15,0,0,1-.89-.45.63.63,0,0,0-.22-.21,14.7,14.7,0,0,0-1.65-.91c-.06,0-.15,0-.16-.07-.11-.33-.42-.29-.65-.38A5.92,5.92,0,0,0,157.7,8a1.38,1.38,0,0,1-.67-.36,1.35,1.35,0,0,1,.77.15,3.66,3.66,0,0,0,.68.29,7.89,7.89,0,0,1,1.29.67c.22.11.43.24.64.36a2.72,2.72,0,0,1,.71.49,1.43,1.43,0,0,0,1.12.54,1.79,1.79,0,0,0,.54.82c.24.23.45.48.67.72A.51.51,0,0,1,163.59,12.11Z" transform="translate(-87.97 -5.47)"/><path class="cls-4" d="M103.61,132.1a3.64,3.64,0,0,1-1.11-.33c-.54-.24-1.08-.47-1.61-.73a1.1,1.1,0,0,0-.35-.11,3,3,0,0,1-1.08-.45,13.54,13.54,0,0,0-1.7-.86c-.24-.11-.54-.22-.63-.54l1.55.71c.45.2.85.48,1.28.71a2,2,0,0,0,.39.18,13.06,13.06,0,0,1,1.32.48c.39.16.77.37,1.17.52.15,0,.3.12.46.16A.36.36,0,0,1,103.61,132.1Z" transform="translate(-87.97 -5.47)"/><path class="cls-4" d="M91.89,125.22a1.58,1.58,0,0,1-.84-.68c-.32-.48-.73-.89-1.06-1.36a6.28,6.28,0,0,1-.48-.78l-.45-.81a1.43,1.43,0,0,1-.15-.27,8,8,0,0,0-.61-1.48.49.49,0,0,1,0-.36,3,3,0,0,1,.65,1.22,8.84,8.84,0,0,0,.64,1.31c0,.1.12.17.16.27A9,9,0,0,0,90.9,124a5.35,5.35,0,0,0,.93,1S91.87,125.14,91.89,125.22Z" transform="translate(-87.97 -5.47)"/><path class="cls-4" d="M97.05,129a2.88,2.88,0,0,1-1.41-.69c-.12-.08-.22-.19-.33-.27a1,1,0,0,0-.61-.27.51.51,0,0,1-.55-.39.62.62,0,0,0-.28-.32,9.42,9.42,0,0,1-1.08-.8,4.44,4.44,0,0,1-.86-1,.67.67,0,0,1,.51.3l.93.89a1.63,1.63,0,0,0,.33.27,1.43,1.43,0,0,1,.74.79,1.32,1.32,0,0,0,.3.1,1.42,1.42,0,0,1,.77.34,5.53,5.53,0,0,0,1.23.8C96.88,128.79,97,128.84,97.05,129Z" transform="translate(-87.97 -5.47)"/><path class="cls-4" d="M116.77,19.3a3.06,3.06,0,0,1-.27,1A5.47,5.47,0,0,0,116,22a2.88,2.88,0,0,1-.37,1.09,1.59,1.59,0,0,0-.17.52c0,.34-.18.66-.24,1s-.13.42-.16.65a.74.74,0,0,1-.3.57c-.07-.21.05-.4.09-.6a16.75,16.75,0,0,1,.62-2.31,2.44,2.44,0,0,0,.3-.79,1.21,1.21,0,0,0,0-.18,3.91,3.91,0,0,1,.58-1.85,2,2,0,0,0,.08-.42A.38.38,0,0,1,116.77,19.3Z" transform="translate(-87.97 -5.47)"/><path class="cls-4" d="M114.13,47.66a1,1,0,0,1-.06.23H114a3.35,3.35,0,0,0-.11-1.09c-.11-.95-.3-1.9-.45-2.85,0-.16,0-.32,0-.49,0-.59,0-1.19,0-1.78a1.67,1.67,0,0,0-.07-.67s0-.11,0-.16c.21.13.2.34.21.55,0,.65,0,1.31,0,2a1.65,1.65,0,0,0,.11.73,1.29,1.29,0,0,1,.06.48,2.54,2.54,0,0,0,.16,1.09C113.9,46.33,114.17,47,114.13,47.66Z" transform="translate(-87.97 -5.47)"/><path class="cls-4" d="M90.1,109.12a6,6,0,0,0-.38,1s0,0,0,0a4.22,4.22,0,0,0-.67,1.5,13.36,13.36,0,0,0-.47,1.39c-.14.47-.26,1-.37,1.42a3.43,3.43,0,0,0,0,.56.3.3,0,0,1-.12.26,2.76,2.76,0,0,1,.1-1.45,4.75,4.75,0,0,0,.14-.54,21.55,21.55,0,0,1,1-2.83c.17-.4.37-.78.52-1.18A.29.29,0,0,1,90.1,109.12Z" transform="translate(-87.97 -5.47)"/><path class="cls-4" d="M124.72,8.76a1.85,1.85,0,0,1-.76.47,14.53,14.53,0,0,0-1.64.79c-.1.05-.15.19-.24.3a1.12,1.12,0,0,0-.9.39,11.5,11.5,0,0,1-1.12.82c-.25.18-.45.42-.78.45a.23.23,0,0,1,.11-.2c.36-.27.71-.54,1.06-.83a8.44,8.44,0,0,1,.83-.61.85.85,0,0,1,.38-.19c.06,0,.14,0,.17,0,.22-.31.59-.33.89-.5l.86-.45a.65.65,0,0,1,.22-.11,1.2,1.2,0,0,0,.71-.33A.14.14,0,0,1,124.72,8.76Z" transform="translate(-87.97 -5.47)"/><path class="cls-4" d="M137.14,202.26a.46.46,0,0,1-.18-.37l0-.8a3,3,0,0,0-.13-1,1.6,1.6,0,0,1,0-.54,13,13,0,0,0-.16-1.64,4.23,4.23,0,0,1,0-1.7.28.28,0,0,1,.13.2c0,.12,0,.24,0,.36a6.86,6.86,0,0,0,.17,1.7,2.69,2.69,0,0,1,.08.79,15.94,15.94,0,0,0,.2,2.07A2,2,0,0,1,137.14,202.26Z" transform="translate(-87.97 -5.47)"/><path class="cls-4" d="M114.61,26.94a1.46,1.46,0,0,0-.13.65,3.71,3.71,0,0,1-.12.65,5.36,5.36,0,0,0-.24,1.44.85.85,0,0,1-.12.64.5.5,0,0,0-.07.36,5.82,5.82,0,0,1-.25,1.61.67.67,0,0,1,0-.64,2.62,2.62,0,0,0,.08-.61,1.78,1.78,0,0,1,.18-1,.47.47,0,0,0,0-.24c0-.68.19-1.34.25-2s.28-1,.32-1.51c0,0,.08-.07.13-.11A1,1,0,0,1,114.61,26.94Z" transform="translate(-87.97 -5.47)"/><path class="cls-4" d="M135.43,183.82a1.54,1.54,0,0,1-.24-.94c0-.33,0-.66,0-1-.07-.86-.17-1.71-.31-2.56a4.33,4.33,0,0,1,0-1.72.35.35,0,0,1,.14.32,16.88,16.88,0,0,0,.21,2.13,15.79,15.79,0,0,1,.18,2.38,2.9,2.9,0,0,0,.11,1.09A.27.27,0,0,1,135.43,183.82Z" transform="translate(-87.97 -5.47)"/><path class="cls-4" d="M183.68,245.49a5.25,5.25,0,0,1-1.31.62,1.51,1.51,0,0,0-.45.2.62.62,0,0,1-.35.1,2.11,2.11,0,0,0-.88.24,1.5,1.5,0,0,1-.47.14,4.44,4.44,0,0,0-1.21.12.21.21,0,0,1-.22-.07,1.51,1.51,0,0,1,.93-.24,2.64,2.64,0,0,0,1.23-.25,6.74,6.74,0,0,0,1.36-.5c.46,0,.75-.37,1.13-.45a.69.69,0,0,0,0-.69c0-.09-.11-.17-.06-.28a.34.34,0,0,1,.32.32A1.44,1.44,0,0,1,183.68,245.49Z" transform="translate(-87.97 -5.47)"/><path class="cls-4" d="M163.26,183a.72.72,0,0,1-.22-.54,10,10,0,0,0-.35-2,.55.55,0,0,1,0-.18,5.93,5.93,0,0,0-.36-1.72,1.5,1.5,0,0,1,0-.84.22.22,0,0,1,.15.24,3,3,0,0,0,.22,1.07,2.88,2.88,0,0,1,.19,1,2,2,0,0,0,.07.42,12.67,12.67,0,0,1,.29,1.93,3.71,3.71,0,0,0,.1.48A.2.2,0,0,1,163.26,183Z" transform="translate(-87.97 -5.47)"/><path class="cls-4" d="M128.07,243.2a.77.77,0,0,1-.88.2.2.2,0,0,1,.16-.17c.13,0,.29,0,.43-.1a.51.51,0,0,0,0-.45c-.17-.51-.09-1.06-.21-1.57s-.16-1-.23-1.45a1.27,1.27,0,0,1,0-.77.74.74,0,0,1,.16.46,16.5,16.5,0,0,1,.3,2.42,1.19,1.19,0,0,0,.22.82A1.79,1.79,0,0,0,128.07,243.2Z" transform="translate(-87.97 -5.47)"/><path class="cls-4" d="M138.59,248.55a.7.7,0,0,1-.61.21c-.58,0-1.14.19-1.72.15a.27.27,0,0,0-.18,0,1.86,1.86,0,0,1-1.13.2,2,2,0,0,0-.55.09c-.17.06-.36.11-.51-.06a2,2,0,0,1,1.06-.24,1.48,1.48,0,0,0,1-.17.2.2,0,0,1,.11,0C136.89,248.78,137.73,248.46,138.59,248.55Z" transform="translate(-87.97 -5.47)"/><path class="cls-4" d="M137,5.92a.27.27,0,0,1-.23.18l-.43,0a6,6,0,0,0-2.2.33,1.54,1.54,0,0,1-.37,0l-1.1.06s0-.12.08-.15a.51.51,0,0,1,.23-.07,7.08,7.08,0,0,0,2.1-.32,5,5,0,0,1,.67,0,5.57,5.57,0,0,0,1.15-.08S136.94,5.9,137,5.92Z" transform="translate(-87.97 -5.47)"/><path class="cls-4" d="M129.56,249.66c0,.08,0,.16-.13.18a1,1,0,0,1-.3,0l-3.55,0a.87.87,0,0,1-.42-.07.28.28,0,0,1,.27-.12h.74Z" transform="translate(-87.97 -5.47)"/><path class="cls-4" d="M177.29,106.05c-.12,0-.17-.1-.21-.2a10.51,10.51,0,0,0-.72-1.42,1,1,0,0,1-.14-.28,8.52,8.52,0,0,0-.66-1.52,2,2,0,0,1-.21-.7.25.25,0,0,1,.22.18,2.84,2.84,0,0,0,.4.82.27.27,0,0,1,.06.1,20,20,0,0,0,1.14,2.49A.82.82,0,0,1,177.29,106.05Z" transform="translate(-87.97 -5.47)"/><path class="cls-4" d="M113.64,33.49a1.89,1.89,0,0,0-.1.66c0,.49,0,1,0,1.48a.84.84,0,0,1-.21.62s-.08-.12-.07-.16a4.32,4.32,0,0,0,.1-1.52c0-.63.13-1.25.17-1.87,0-.09.07-.14.16-.17A1.57,1.57,0,0,1,113.64,33.49Z" transform="translate(-87.97 -5.47)"/><path class="cls-4" d="M129.16,7.3a.17.17,0,0,1-.21.16,1.2,1.2,0,0,0-.81.24,2.55,2.55,0,0,1-.69.23,7.46,7.46,0,0,1-1.62.44c.06-.22.26-.25.43-.3a9.59,9.59,0,0,1,1.39-.4.49.49,0,0,0,.17-.06A2,2,0,0,1,129.16,7.3Z" transform="translate(-87.97 -5.47)"/><path class="cls-4" d="M159.94,239.12v.25c0,.16-.06.28-.23.32a1.09,1.09,0,0,0-.12-.7,5.18,5.18,0,0,1-.3-1.06q-.09-.36-.15-.72a1.15,1.15,0,0,1,0-.61,5.62,5.62,0,0,1,.36,1.21A3.16,3.16,0,0,0,159.94,239.12Z" transform="translate(-87.97 -5.47)"/><path class="cls-4" d="M117.78,13.85a.53.53,0,0,1-.07.35c-.18.34-.34.69-.52,1a1.35,1.35,0,0,0-.2.68.54.54,0,0,1-.22.42s-.07-.07-.06-.09a3.1,3.1,0,0,1,.29-1.06,4.22,4.22,0,0,0,.21-.57A1.32,1.32,0,0,1,117.78,13.85Z" transform="translate(-87.97 -5.47)"/><path class="cls-4" d="M174.1,99.58c-.25-.14-.27-.44-.42-.65a7.92,7.92,0,0,1-.86-1.66.65.65,0,0,1-.07-.41A.21.21,0,0,1,173,97a8.62,8.62,0,0,0,.91,1.79A1.26,1.26,0,0,1,174.1,99.58Z" transform="translate(-87.97 -5.47)"/><path class="cls-4" d="M119.46,179.89s-.12-.07-.12-.12a2.53,2.53,0,0,0-.28-1.21,2.71,2.71,0,0,1,0-.9s0,0,0,0A4.56,4.56,0,0,1,119.46,179.89Z" transform="translate(-87.97 -5.47)"/><path class="cls-4" d="M122.51,249.55a.21.21,0,0,1-.22.08c-.25,0-.51-.09-.76-.15a.3.3,0,0,1-.24-.25,1.9,1.9,0,0,1,.19-1.28s.07,0,.1-.06a.38.38,0,0,1,0,.4,1.23,1.23,0,0,0,0,1A2.21,2.21,0,0,1,122.51,249.55Z" transform="translate(-87.97 -5.47)"/><path class="cls-4" d="M119.21,12.05a1.4,1.4,0,0,1-.39.66c-.38.35-.65.79-1,1.13a.78.78,0,0,1,.24-.59,4.87,4.87,0,0,0,1-1.16C119,12,119.13,12,119.21,12.05Z" transform="translate(-87.97 -5.47)"/><path class="cls-4" d="M123.49,245.3a2.29,2.29,0,0,1-.56.64,6.26,6.26,0,0,0-1,1.1c-.06,0-.09-.09-.07-.15a1.44,1.44,0,0,1,.38-.68c.33-.3.63-.63,1-.94A.14.14,0,0,1,123.49,245.3Z" transform="translate(-87.97 -5.47)"/><path class="cls-4" d="M141.31,248.16a.83.83,0,0,1-.62.22,9.19,9.19,0,0,0-1.65.14,1.59,1.59,0,0,1-.37,0,.23.23,0,0,1,.17-.16A13.56,13.56,0,0,1,141.31,248.16Z" transform="translate(-87.97 -5.47)"/><path class="cls-4" d="M171.39,94.48s-.13,0-.16-.08a5.83,5.83,0,0,1-.39-.62c-.23-.42-.44-.84-.65-1.26a.93.93,0,0,1,0-.24c.11,0,.17.08.23.17.3.54.61,1.08.92,1.62A.82.82,0,0,1,171.39,94.48Z" transform="translate(-87.97 -5.47)"/><path class="cls-4" d="M156.91,7.62a.43.43,0,0,1-.41,0c-.22-.16-.51-.14-.73-.3s-.32-.06-.48-.07-.37,0-.49-.18.06-.07.09-.07.16.06.24,0a3.75,3.75,0,0,1,1.67.45S156.87,7.57,156.91,7.62Z" transform="translate(-87.97 -5.47)"/><path class="cls-4" d="M133.28,249.18a.22.22,0,0,1-.14.18,1.76,1.76,0,0,1-.64.15,4.65,4.65,0,0,0-1.44.11s-.1-.05-.15-.07a1,1,0,0,1,.74-.24h.25a5.93,5.93,0,0,1,.73,0C132.87,249.34,133.05,249.13,133.28,249.18Z" transform="translate(-87.97 -5.47)"/><path class="cls-4" d="M183.48,243.92s0,.1-.08.15c-.32-.28-.29-.7-.43-1a3.43,3.43,0,0,0-.42-.86c.14-.08.31-.07.36.08C183.12,242.8,183.3,243.36,183.48,243.92Z" transform="translate(-87.97 -5.47)"/><path class="cls-4" d="M141.77,246.22a.23.23,0,0,1-.19-.21,5.65,5.65,0,0,0-.36-1.47.5.5,0,0,1,0-.36c.24.11.22.37.3.57s0,.27.06.35A1.52,1.52,0,0,1,141.77,246.22Z" transform="translate(-87.97 -5.47)"/><path class="cls-4" d="M159.68,246.07c-.05,0-.13-.07-.14-.11a8.31,8.31,0,0,1-.18-1.49c0-.1,0-.2.11-.27.11.12.06.27.07.4a1,1,0,0,0,.06.42A1.58,1.58,0,0,1,159.68,246.07Z" transform="translate(-87.97 -5.47)"/><path class="cls-4" d="M142.15,247.88a.27.27,0,0,1-.29.25,3.85,3.85,0,0,1-.48,0,.22.22,0,0,1,.17-.15l.34-.07a2.12,2.12,0,0,0,0-1.12.29.29,0,0,1,.29.26A5.86,5.86,0,0,1,142.15,247.88Z" transform="translate(-87.97 -5.47)"/><path class="cls-4" d="M132.23,6.66a.6.6,0,0,1-.49.21,3.73,3.73,0,0,0-1.2.15.37.37,0,0,1,.35-.29A6.69,6.69,0,0,1,132.23,6.66Z" transform="translate(-87.97 -5.47)"/><path class="cls-4" d="M179.94,113a8.13,8.13,0,0,1-.46-1.28.55.55,0,0,1,0-.42s.12.07.13.12c.14.41.26.82.39,1.23A.4.4,0,0,1,179.94,113Z" transform="translate(-87.97 -5.47)"/><path class="cls-4" d="M178.88,109.9a.23.23,0,0,1-.16-.16c-.18-.44-.36-.89-.53-1.33a1.24,1.24,0,0,1,0-.18.3.3,0,0,1,.22.19c.16.42.32.83.46,1.25A.45.45,0,0,1,178.88,109.9Z" transform="translate(-87.97 -5.47)"/><path class="cls-4" d="M167.29,87.47c-.25-.09-.28-.34-.39-.52a2.22,2.22,0,0,1-.46-1,.2.2,0,0,1,.2.11c.21.36.42.72.61,1.09A1.45,1.45,0,0,1,167.29,87.47Z" transform="translate(-87.97 -5.47)"/><path class="cls-4" d="M178.43,238.83a.56.56,0,0,1-.42,0,4.4,4.4,0,0,0-1-.44s0,0,0-.05a.85.85,0,0,1,.85.15,1.65,1.65,0,0,0,.45.19A.22.22,0,0,1,178.43,238.83Z" transform="translate(-87.97 -5.47)"/><path class="cls-4" d="M166.25,85.67c-.05,0-.12,0-.15-.09a11.8,11.8,0,0,1-.7-1.18c.06,0,.14,0,.17,0a3.89,3.89,0,0,1,.7,1.13S166.26,85.63,166.25,85.67Z" transform="translate(-87.97 -5.47)"/><path class="cls-4" d="M124.06,249.83a2.26,2.26,0,0,1-1,0,.34.34,0,0,1-.32-.31s.09,0,.11,0a1.79,1.79,0,0,0,.82.18C123.8,249.72,124,249.69,124.06,249.83Z" transform="translate(-87.97 -5.47)"/><path class="cls-4" d="M154.55,7a4.77,4.77,0,0,0-.84-.15c-.12,0-.21-.11-.27-.21s.07-.06.09-.06a2.84,2.84,0,0,0,.71.11A.33.33,0,0,1,154.55,7Z" transform="translate(-87.97 -5.47)"/><path class="cls-4" d="M169.61,91.35c-.07,0-.17-.08-.2-.14a4.68,4.68,0,0,1-.5-1H169A1.87,1.87,0,0,1,169.61,91.35Z" transform="translate(-87.97 -5.47)"/><path class="cls-4" d="M116.76,18s-.12-.06-.13-.1a2.09,2.09,0,0,1,0-.93c0-.05.08-.08.13-.11A2.74,2.74,0,0,1,116.76,18Z" transform="translate(-87.97 -5.47)"/><path class="cls-4" d="M130.29,7a.56.56,0,0,1-.47.21l-.64,0a.18.18,0,0,1,.12-.19l.95-.1Z" transform="translate(-87.97 -5.47)"/><path class="cls-4" d="M88.21,119.39a.24.24,0,0,1-.21-.25,2.49,2.49,0,0,1,0-.77.33.33,0,0,1,.15.25C88.18,118.88,88.19,119.13,88.21,119.39Z" transform="translate(-87.97 -5.47)"/><path class="cls-4" d="M176.58,238.21l-.87-.19s-.05-.05-.07-.09a1.39,1.39,0,0,1,.61,0A.34.34,0,0,1,176.58,238.21Z" transform="translate(-87.97 -5.47)"/><path class="cls-4" d="M178.15,108a.77.77,0,0,1-.42-.8C178,107.45,178.21,107.67,178.15,108Z" transform="translate(-87.97 -5.47)"/><path class="cls-4" d="M97.34,99.94a.67.67,0,0,1-.46.71A1,1,0,0,1,97.34,99.94Z" transform="translate(-87.97 -5.47)"/><path class="cls-4" d="M180.29,239.93c-.06,0-.13,0-.16,0a1.24,1.24,0,0,1-.51-.53C180,239.39,180.15,239.65,180.29,239.93Z" transform="translate(-87.97 -5.47)"/><path class="cls-4" d="M181,240.6a2.21,2.21,0,0,1-.61-.61C180.86,240.06,180.94,240.13,181,240.6Z" transform="translate(-87.97 -5.47)"/><path class="cls-4" d="M116.77,19.06a.69.69,0,0,1,0-.73A.85.85,0,0,1,116.77,19.06Z" transform="translate(-87.97 -5.47)"/><path class="cls-4" d="M170.14,92.28c-.06,0-.13,0-.17,0a2.68,2.68,0,0,1-.29-.7.37.37,0,0,1,.3.25C170,91.94,170.09,92.11,170.14,92.28Z" transform="translate(-87.97 -5.47)"/><path class="cls-4" d="M125.47,8.4l-.2.28a.21.21,0,0,1-.3.07.62.62,0,0,1,.26-.37A.15.15,0,0,1,125.47,8.4Z" transform="translate(-87.97 -5.47)"/><path class="cls-4" d="M159.29,241.25c-.22-.27-.22-.41,0-.66A.89.89,0,0,1,159.29,241.25Z" transform="translate(-87.97 -5.47)"/><path class="cls-4" d="M171.75,95.24a.19.19,0,0,1-.18-.12,1.13,1.13,0,0,1-.16-.62c.05,0,.13,0,.14.08A1.58,1.58,0,0,1,171.75,95.24Z" transform="translate(-87.97 -5.47)"/><path class="cls-4" d="M168.35,89c-.18-.16-.41-.27-.45-.55C168.2,88.52,168.39,88.67,168.35,89Z" transform="translate(-87.97 -5.47)"/><path class="cls-4" d="M165,83.6a.5.5,0,0,1-.37-.59C164.88,83.09,164.92,83.34,165,83.6Z" transform="translate(-87.97 -5.47)"/><path class="cls-4" d="M125.72,244.08a.22.22,0,0,1-.21.18l-.41.05a.21.21,0,0,1,.22-.23C125.45,244.07,125.59,244.08,125.72,244.08Z" transform="translate(-87.97 -5.47)"/><path class="cls-4" d="M167.62,88c-.26-.09-.31-.31-.33-.54C167.6,87.52,167.62,87.76,167.62,88Z" transform="translate(-87.97 -5.47)"/><path class="cls-4" d="M174.59,100.33l-.31-.45C174.67,99.88,174.75,100,174.59,100.33Z" transform="translate(-87.97 -5.47)"/><path class="cls-4" d="M164.53,82.94a.63.63,0,0,1-.3-.56C164.53,82.46,164.59,82.67,164.53,82.94Z" transform="translate(-87.97 -5.47)"/><path class="cls-4" d="M182.13,241.71a.47.47,0,0,1-.35-.49A.4.4,0,0,1,182.13,241.71Z" transform="translate(-87.97 -5.47)"/><path class="cls-4" d="M127,243.44a.53.53,0,0,1-.5.25C126.59,243.4,126.71,243.34,127,243.44Z" transform="translate(-87.97 -5.47)"/><path class="cls-4" d="M165.31,84.13a1.28,1.28,0,0,1-.29-.47C165.35,83.73,165.42,83.85,165.31,84.13Z" transform="translate(-87.97 -5.47)"/><path class="cls-4" d="M124.33,244.68c-.08.22-.21.37-.48.33A.42.42,0,0,1,124.33,244.68Z" transform="translate(-87.97 -5.47)"/><path class="cls-4" d="M179.17,110.6c-.14-.09-.31-.16-.21-.39a.35.35,0,0,1,.24.15C179.27,110.44,179.29,110.53,179.17,110.6Z" transform="translate(-87.97 -5.47)"/><path class="cls-4" d="M159.47,240.11c-.13-.07-.09-.16,0-.25a.42.42,0,0,1,.26-.14C159.75,239.93,159.61,240,159.47,240.11Z" transform="translate(-87.97 -5.47)"/><path class="cls-4" d="M172.7,96.79a.38.38,0,0,1-.3-.43A.34.34,0,0,1,172.7,96.79Z" transform="translate(-87.97 -5.47)"/><path class="cls-4" d="M175,237.7a.38.38,0,0,1-.38-.08C174.79,237.49,174.84,237.5,175,237.7Z" transform="translate(-87.97 -5.47)"/><path class="cls-4" d="M177.69,106.89a.31.31,0,0,1-.08-.39C177.82,106.64,177.83,106.69,177.69,106.89Z" transform="translate(-87.97 -5.47)"/><path class="cls-4" d="M175.08,101.44c-.22-.08-.24-.1-.24-.37C175.06,101.15,175.07,101.16,175.08,101.44Z" transform="translate(-87.97 -5.47)"/><path class="cls-4" d="M119.08,177.42c-.19-.1-.2-.26-.12-.44C119.07,177.11,119.16,177.24,119.08,177.42Z" transform="translate(-87.97 -5.47)"/><path class="cls-4" d="M168.65,89.82c-.21-.11-.23-.15-.2-.39C168.66,89.49,168.67,89.65,168.65,89.82Z" transform="translate(-87.97 -5.47)"/><path class="cls-4" d="M174.84,101.06c-.21-.11-.23-.15-.2-.37C174.84,100.75,174.85,100.9,174.84,101.06Z" transform="translate(-87.97 -5.47)"/><path class="cls-4" d="M124.75,244.46c-.07.2-.23.2-.4.2C124.44,244.45,124.46,244.44,124.75,244.46Z" transform="translate(-87.97 -5.47)"/><path class="cls-4" d="M172,95.61c-.21,0-.24-.19-.24-.36C172,95.32,172,95.34,172,95.61Z" transform="translate(-87.97 -5.47)"/><path class="cls-4" d="M173.48,237.58c-.12.08-.19,0-.25-.09C173.37,237.38,173.41,237.39,173.48,237.58Z" transform="translate(-87.97 -5.47)"/><path class="cls-4" d="M179.37,111.14c-.15,0-.25-.13-.16-.31A.21.21,0,0,1,179.37,111.14Z" transform="translate(-87.97 -5.47)"/><path class="cls-4" d="M181.45,240.93a.37.37,0,0,1-.18-.21.1.1,0,0,1,.14-.06C181.53,240.73,181.5,240.83,181.45,240.93Z" transform="translate(-87.97 -5.47)"/><path class="cls-4" d="M179.42,239.21a.34.34,0,0,1-.33-.11C179.31,239,179.31,239,179.42,239.21Z" transform="translate(-87.97 -5.47)"/><path class="cls-4" d="M159.45,242.23c-.2-.08-.21-.12-.09-.26A.16.16,0,0,1,159.45,242.23Z" transform="translate(-87.97 -5.47)"/><path class="cls-4" d="M181.77,241.2c-.13,0-.28,0-.29-.2C181.64,241,181.75,241,181.77,241.2Z" transform="translate(-87.97 -5.47)"/><path class="cls-4" d="M175.26,101.76a.39.39,0,0,1-.18-.32C175.31,101.52,175.31,101.52,175.26,101.76Z" transform="translate(-87.97 -5.47)"/><path class="cls-4" d="M168.87,90.1a.29.29,0,0,1-.22-.28C168.83,89.83,168.9,89.92,168.87,90.1Z" transform="translate(-87.97 -5.47)"/><path class="cls-4" d="M121.89,247.29a.26.26,0,0,1-.23.27C121.64,247.39,121.7,247.28,121.89,247.29Z" transform="translate(-87.97 -5.47)"/><path class="cls-4" d="M172.28,96.08a.3.3,0,0,1-.16-.33C172.34,95.83,172.35,95.84,172.28,96.08Z" transform="translate(-87.97 -5.47)"/><path class="cls-4" d="M167.86,88.39a.27.27,0,0,1-.19-.31C167.86,88.11,167.92,88.21,167.86,88.39Z" transform="translate(-87.97 -5.47)"/><path class="cls-4" d="M166.78,43.65l-.1.15c-.09,0-.15,0-.14-.12Z" transform="translate(-87.97 -5.47)"/><path class="cls-4" d="M147.92,78.57l-.3.17C147.66,78.57,147.78,78.56,147.92,78.57Z" transform="translate(-87.97 -5.47)"/><path class="cls-4" d="M147.86,79.42l-.13-.12C147.8,79.31,147.86,79.33,147.86,79.42Z" transform="translate(-87.97 -5.47)"/><path class="cls-5" d="M138.93,81.88a1.15,1.15,0,0,0,.14.27c.68.82,1.36,1.64,2.07,2.44a1.9,1.9,0,0,1,.27.53,1.52,1.52,0,0,1-.58,1c0,.21,0,.42,0,.62.07.59.17,1.18.23,1.77.15,1.33.32,2.66.43,4,.08,1.11.14,2.22.21,3.33.1,1.52.13,3,.19,4.56,0,.81.05,1.61.06,2.41,0,2.31.05,4.62.08,6.92,0,.64,0,1.28,0,1.92a.88.88,0,0,0,.1.56l.23,0c0,.52-.22,1-.21,1.54a.46.46,0,0,0-.2.3c-.1.55-.21,1.09-.28,1.63-.13,1-.28,2-.51,3a2.67,2.67,0,0,0-.08.48c-.06.84-.28,1.65-.39,2.48l-.16,1.61a3.7,3.7,0,0,0-.31,1.5l-.09,1.41a.32.32,0,0,0-.2.21,2.68,2.68,0,0,0-.14.79,1.06,1.06,0,0,1-.06.48,1.37,1.37,0,0,0-.17.83c0,.29-.17.56-.09.85l-.07.5c-.1.08-.09.17,0,.26,0,.27-.07.54-.11.81a.29.29,0,0,0-.15.25c0,.29-.06.57-.08.86a2.07,2.07,0,0,1-.32,1,.17.17,0,0,1-.15.08.18.18,0,0,1-.14-.1.88.88,0,0,1-.07-.23,6.06,6.06,0,0,1-.13-1.35.66.66,0,0,0-.38-.64.58.58,0,0,0,0-.41,1.54,1.54,0,0,0-.1-.9,4.61,4.61,0,0,1-.24-1.43c0-.42-.06-.85-.1-1.27a1,1,0,0,0,0-.3,14.22,14.22,0,0,1-.37-1.72s0-.06-.07-.09l0-.25a2.45,2.45,0,0,0-.08-1,13.44,13.44,0,0,1-.31-1.68c-.12-1-.31-2-.46-3a.29.29,0,0,0-.13-.19l-.07-.48a.39.39,0,0,0,0-.18,18,18,0,0,0-.46-2.06l0-.37a8.58,8.58,0,0,0-.16-1.43.61.61,0,0,0-.18-.43c0-.36-.2-.68-.16-1,.11,0,.22,0,.23-.15s0-.45,0-.67c0-.91,0-1.82,0-2.72,0-2,.05-3.91.09-5.87,0-1.25.05-2.51.09-3.77,0-.69.12-1.39.14-2.09,0-1.21.13-2.42.17-3.64,0-.76.17-1.51.21-2.27,0-1.07.2-2.13.33-3.19.07-.53.11-1.06.23-1.59a.47.47,0,0,0-.19-.54,1,1,0,0,1-.38-.81,1.4,1.4,0,0,1,.4-.86c.47-.49.89-1,1.33-1.54a.43.43,0,0,0,.34-.4c.21-.21.41-.41.31-.75,0,.11.14.12.24.13Z" transform="translate(-87.97 -5.47)"/><path class="cls-6" d="M137,124.33c0,.08,0,.16,0,.25a.24.24,0,0,0-.14.18,3.15,3.15,0,0,0,.46,1.89s.07,0,.11,0c0,.42.09.85.1,1.27a4.61,4.61,0,0,0,.24,1.43,1.54,1.54,0,0,1,.1.9c-.2,0-.37-.1-.4-.32a1.27,1.27,0,0,0-.29-.67,1.15,1.15,0,0,1-.2-.45,5.29,5.29,0,0,0-.43-1.21,4.5,4.5,0,0,1-.24-.76,7.64,7.64,0,0,0-.29-.8,2.32,2.32,0,0,1-.29-1,.39.39,0,0,0-.11-.29,4.15,4.15,0,0,1-.62-1.39c-.16-.39-.24-.82-.44-1.2a1.86,1.86,0,0,1-.09-.48,10.7,10.7,0,0,0-.58-1.55c0-.12-.09-.23-.14-.35l-.78-2.13c0-.12-.06-.24-.09-.36s0-.24-.08-.29c-.28-.21-.29-.54-.37-.82-.21-.76-.58-1.45-.78-2.2a.43.43,0,0,0-.06-.17,1.66,1.66,0,0,1-.31-1,.55.55,0,0,0-.17-.44,1,1,0,0,1-.29-.61,15.92,15.92,0,0,0-.62-1.8c-.2-.62-.52-1.2-.67-1.84-.09-.36-.3-.67-.41-1a38.1,38.1,0,0,0-1.46-4,2,2,0,0,1-.1-.35,3.77,3.77,0,0,0-.45-1.21,3.07,3.07,0,0,1-.29-.87c-.16-.6-.44-1.14-.63-1.72s-.46-1.14-.63-1.74a1.47,1.47,0,0,0-.14-.4,3.75,3.75,0,0,1-.33-2.11.68.68,0,0,1,.11-.34c.26-.38.5-.76.75-1.13a.6.6,0,0,0,.13-.28.87.87,0,0,1,.12-.34c.15-.31.45-.51.53-.89a4.51,4.51,0,0,1,.45-.87,4,4,0,0,1,.39-.62.52.52,0,0,0,0-.72.6.6,0,0,0-.19,0c-.63.26-1.3.37-1.94.57a7.68,7.68,0,0,0-.79.32,1.33,1.33,0,0,1-.64.17,1,1,0,0,0-.53.13,5.37,5.37,0,0,1-1.12.34.24.24,0,0,1-.31-.31,1.25,1.25,0,0,1,.17-.39L123.94,88a1.49,1.49,0,0,0,.12-.14,11.38,11.38,0,0,1,1.43-2.07,7.28,7.28,0,0,1,1.07-1.41,1.87,1.87,0,0,0,.41-.61,2.15,2.15,0,0,1,.48-.64,5.19,5.19,0,0,0,.66-.81c.15-.17,0-.35-.2-.36H114.12c-.21,0-.45.08-.64-.12l.61,0c3.48,0,7,0,10.44,0h3.71a.74.74,0,0,1,.41.08,3,3,0,0,0,.25,1c.09.33.14.67.26,1a9.7,9.7,0,0,0,.43,1.32.3.3,0,0,0,.1.29,1.84,1.84,0,0,0,.28.94.37.37,0,0,0,.08.3,1.39,1.39,0,0,0,.22.79.59.59,0,0,0,.16.44c-.05.09,0,.15.06.19a.35.35,0,0,0,.06.31,4.22,4.22,0,0,0,.42,1.42.38.38,0,0,0,.15.43.18.18,0,0,0,.15.22l.18.65c-.11.11,0,.18.05.24a10.32,10.32,0,0,0,.32,2c-.1.1-.07.18,0,.26a18.08,18.08,0,0,0,.38,2.3.17.17,0,0,0,0,.26,3.4,3.4,0,0,0,.16.9c.21,1.22.4,2.44.6,3.65l.48,2.92.18,1.09c.19,1.08.37,2.15.55,3.22s.33,1.9.49,2.85c.1.59.17,1.18.26,1.77,0,.36.18.68.16,1-.1.05-.17.14-.13.24a3.28,3.28,0,0,1,.1,1v.25a.35.35,0,0,0,.37.34l0,.37s-.11.08-.11.13a2.24,2.24,0,0,0,.06,1.09c.12.3.21.62.32.92,0,0,.1.06.15.1s.05.32.07.48c-.24.11-.28.16-.25.34.08.52.15,1,.24,1.57a3.69,3.69,0,0,0,.19,1,1.62,1.62,0,0,1,.17.82,2.57,2.57,0,0,0,.12.91c.11.35.2.71.3,1.06C136.81,124.32,136.91,124.32,137,124.33Z" transform="translate(-87.97 -5.47)"/><path class="cls-6" d="M139.39,129.78l.07-.5s.1,0,.12,0a1.79,1.79,0,0,0,.49-1.26,3.65,3.65,0,0,1,.1-1.27.84.84,0,0,0,0-.6l.09-1.41a.36.36,0,0,0,.35-.41,2.45,2.45,0,0,1,.1-.85c0-.1,0-.19-.14-.24,0-.53.11-1.07.16-1.61a.56.56,0,0,0,.49-.26c0-.32.06-.67.1-1a6.7,6.7,0,0,0,.16-1.41,1.22,1.22,0,0,1,.06-.42,14,14,0,0,0,.3-1.57,6.78,6.78,0,0,0,.14-1.28.58.58,0,0,1,.08-.23,3,3,0,0,0,.28-1.48.26.26,0,0,0-.15-.25c0-.52.17-1,.21-1.54a2.3,2.3,0,0,1,0-.37c.1-.62.21-1.25.33-1.87a3.47,3.47,0,0,0,.08-.79.29.29,0,0,0,.06-.39.61.61,0,0,0,.06-.35.19.19,0,0,0,0-.27,18.62,18.62,0,0,0,.43-2.46.17.17,0,0,0,.06-.26,1.78,1.78,0,0,0,.08-.72.2.2,0,0,0,.06-.27,4.61,4.61,0,0,0,.18-1,.17.17,0,0,0,.06-.27c.09-.49.18-1,.26-1.48a3.91,3.91,0,0,0,0-.48.48.48,0,0,0,.07-.51.61.61,0,0,0,.07-.35.35.35,0,0,0,0-.39,2.07,2.07,0,0,0,.19-1,.44.44,0,0,0,.05-.51l.19-.85a.18.18,0,0,0,.06-.26,1.38,1.38,0,0,0,.07-.6.17.17,0,0,0,0-.27,5.2,5.2,0,0,0,.18-.89,4,4,0,0,0,.16-1.19.19.19,0,0,0,.06-.27,3.67,3.67,0,0,0,.19-1.09.18.18,0,0,0,.05-.27c.09-.49.2-1,.29-1.48a2.17,2.17,0,0,0,0-.36,5.91,5.91,0,0,0,.71-1.83c.32-1.06.63-2.12.94-3.19.15-.53.29-1.07.45-1.6.21-.71.42-1.42.65-2.12.1-.31.11-.31.5-.28a2.24,2.24,0,0,0,.7,1.26,7.91,7.91,0,0,1,1.29,1.64c.38.51.73,1,1.1,1.56,0,0,0,0,0,0a23.8,23.8,0,0,1,1.65,2.2c.49.6.88,1.28,1.32,1.93a.3.3,0,0,1,0,.34.35.35,0,0,1-.38.16,4.78,4.78,0,0,1-.69-.25,20.33,20.33,0,0,1-2.42-.71,8.35,8.35,0,0,0-1.39-.45,1.61,1.61,0,0,0-.49-.06.26.26,0,0,0-.23.39,2.81,2.81,0,0,0,.27.55c.52.79.83,1.69,1.39,2.46.17.57.68,1,.81,1.57a.24.24,0,0,0,.06.11c.35.3.24.6.12,1s-.36,1-.51,1.52a6.32,6.32,0,0,1-.55,1.42,6.3,6.3,0,0,0-.38,1c-.19.56-.36,1.13-.53,1.7-.08.24-.3.4-.34.65s-.12.56-.15.85-.28.45-.35.71c-.2.77-.62,1.47-.79,2.25a.52.52,0,0,1-.1.23,1.62,1.62,0,0,0-.24.61,4,4,0,0,1-.41,1.09,3.61,3.61,0,0,0-.42,1.15,9.2,9.2,0,0,1-.5,1.45,22.3,22.3,0,0,0-.85,2.37,8.33,8.33,0,0,1-.34.92c-.23.53-.36,1.09-.58,1.62s-.29.89-.47,1.32a.79.79,0,0,1-.09.23,2.15,2.15,0,0,0-.35,1,2.29,2.29,0,0,1-.37.9,1.34,1.34,0,0,0-.31.79.64.64,0,0,1-.08.3c-.24.52-.3,1.11-.55,1.62s-.42,1.33-.76,1.94a5.57,5.57,0,0,0-.29.81c-.16.48-.35,1-.47,1.45a7,7,0,0,1-.42,1.14,5.36,5.36,0,0,1-.45,1.08c-.06.07,0,.19-.08.29a11.26,11.26,0,0,1-.73,1.76.27.27,0,0,1-.25.15A.2.2,0,0,0,139.39,129.78Z" transform="translate(-87.97 -5.47)"/><path class="cls-2" d="M117.5,135.15a24.4,24.4,0,0,1-.2-11,.44.44,0,0,1,.35-.08l.92.05a2.8,2.8,0,0,0,2.37-1.24,4.93,4.93,0,0,0,.72-1.36,2.89,2.89,0,0,0,.2-1,4.39,4.39,0,0,1,.43-1.67,2,2,0,0,1,.25-.35.87.87,0,0,1,1.38,0,2,2,0,0,1,.43,1.14,11.15,11.15,0,0,1-.07,2.16,4.25,4.25,0,0,1-.23.77,2.56,2.56,0,0,0-.16,1.45,1.34,1.34,0,0,0,1,1.08,6.24,6.24,0,0,0,1.28.22,2.15,2.15,0,0,1,1.45.73,3.74,3.74,0,0,1,.82,1.23,7.62,7.62,0,0,1,.55,2.4c0,.62.05,1.24,0,1.85a3.69,3.69,0,0,1-1,2.29,5.64,5.64,0,0,1-3.06,1.75,12.55,12.55,0,0,1-2.51.29c-.33,0-.65-.08-1-.08a13.18,13.18,0,0,1-3.06-.41C118.16,135.38,117.85,135.26,117.5,135.15Z" transform="translate(-87.97 -5.47)"/><path class="cls-6" d="M128.07,243.21a1.84,1.84,0,0,1,0-.62,5.6,5.6,0,0,0,1.47-.1c.22-.06.38-.26.62-.26a2.5,2.5,0,0,0,.67,0,5.21,5.21,0,0,1,1.47-.11h3.64a2.25,2.25,0,0,1,.73.08,3.28,3.28,0,0,0,1,0,2,2,0,0,1,1.07.19,6.18,6.18,0,0,0,2,.16,1.49,1.49,0,0,1,0,.63,10,10,0,0,0-2.56-.24,11.64,11.64,0,0,1-1.77-.15,4,4,0,0,1-1.17-.36.68.68,0,0,0-.75,0,1.25,1.25,0,0,1-.93.23h-1a4.44,4.44,0,0,0-1.7.2,2.1,2.1,0,0,1-.61.05,5.6,5.6,0,0,0-1.35.11,2.74,2.74,0,0,0-.63.21A.18.18,0,0,1,128.07,243.21Z" transform="translate(-87.97 -5.47)"/><path class="cls-6" d="M172.09,237c0,.16,0,.31,0,.47-.28,0-.57,0-.86,0a9.5,9.5,0,0,0-2.25.23,2,2,0,0,1-.43,0,1.53,1.53,0,0,0-.6.08.51.51,0,0,1-.24,0c-.8-.06-1.59.12-2.39.13a1.54,1.54,0,0,0-.88.2,5.15,5.15,0,0,1-1,.38,2.13,2.13,0,0,1-.67,0c-.28,0-.53,0-.67.31a.35.35,0,0,1-.36.18c-.24,0-.5.09-.71-.11a.8.8,0,0,1,.22-.5.76.76,0,0,1,.86-.32,1.22,1.22,0,0,0,1.22-.18,4.32,4.32,0,0,1,1.93-.49,9.53,9.53,0,0,0,1.77-.13l.12,0a2.28,2.28,0,0,1,1.31-.21,5.6,5.6,0,0,0,1.47-.1,2.54,2.54,0,0,1,.73,0Z" transform="translate(-87.97 -5.47)"/><path class="cls-6" d="M137.86,130.7a.66.66,0,0,1,.38.64,6.06,6.06,0,0,0,.13,1.35.88.88,0,0,0,.07.23.18.18,0,0,0,.14.1.17.17,0,0,0,.15-.08,2.07,2.07,0,0,0,.32-1c0-.29,0-.57.08-.86a.29.29,0,0,1,.15-.25.41.41,0,0,1,.17.38v1.42a.54.54,0,0,1-.13.4,4.52,4.52,0,0,0-.6.7.22.22,0,0,1-.28.07.26.26,0,0,1-.19-.21c0-.23-.11-.44-.13-.67-.05-.44-.17-.88-.24-1.32A5.66,5.66,0,0,1,137.86,130.7Z" transform="translate(-87.97 -5.47)"/><path class="cls-3" d="M139.39,129.78a.2.2,0,0,1,.18.13.24.24,0,0,1-.18.13C139.3,130,139.29,129.86,139.39,129.78Z" transform="translate(-87.97 -5.47)"/><path class="cls-4" d="M130.05,86.63a.37.37,0,0,1-.08-.3,1.91,1.91,0,0,0-.28-.94.3.3,0,0,1-.1-.29.38.38,0,0,0,0-.17c-.18-.64-.38-1.27-.56-1.91,0-.1,0-.19-.17-.23a3,3,0,0,1-.25-1,1.87,1.87,0,0,1,0-.25q.31-.85.66-1.71a.23.23,0,0,1,.18-.15s.09,0,.11,0a6.29,6.29,0,0,0,1.36.71,14.53,14.53,0,0,0,2,.65,4.87,4.87,0,0,0,1.14.2,3,3,0,0,1,.72.13,4.24,4.24,0,0,0,1.28.11h.55a3.59,3.59,0,0,1,1.22.11,1.08,1.08,0,0,0,.36,0c.1.34-.1.54-.31.75-.32,0-.35.09-.34.4-.44.52-.86,1.05-1.33,1.54a1.4,1.4,0,0,0-.4.86.69.69,0,0,0-.34.14c-.26.26-.53.52-.77.8s-.59.73-.89,1.09c-.57.7-1.14,1.39-1.72,2.08-.22.27-.48.5-.68.79,0,.06-.14.07-.21.11l-.19,0a.38.38,0,0,1-.15-.43,3.39,3.39,0,0,0-.42-1.42.35.35,0,0,1-.06-.31c.06-.09,0-.15-.06-.19a.59.59,0,0,1-.16-.44A1.07,1.07,0,0,0,130.05,86.63Z" transform="translate(-87.97 -5.47)"/><path class="cls-5" d="M147.26,65.75a1.75,1.75,0,0,1,0,.91,9,9,0,0,1-.63,2,5,5,0,0,1-.38.63.42.42,0,0,1-.31.18c-.12,0-.25,0-.34.1a17,17,0,0,1-2.19.62,8.94,8.94,0,0,1-1.71.26c-.61,0-1.23,0-1.85,0a11.07,11.07,0,0,1-3.7-.55l-1.06-.33a2.22,2.22,0,0,1-.88-1.28,5.15,5.15,0,0,1-.44-1.59,2.13,2.13,0,0,0-.1-.42,1.47,1.47,0,0,1,0-.72.32.32,0,0,1,.22.19,2.13,2.13,0,0,0,.93.88,7.9,7.9,0,0,0,1.7.7,13.68,13.68,0,0,0,2.91.46,14,14,0,0,0,3.87-.21,15.66,15.66,0,0,0,1.91-.47,7,7,0,0,0,1.2-.59A3.51,3.51,0,0,0,147.26,65.75Z" transform="translate(-87.97 -5.47)"/><path class="cls-3" d="M129.54,38.25c-.52,0-1,0-1.51.08a26.42,26.42,0,0,0-2.82.3,16.92,16.92,0,0,0-2.35.5,2.51,2.51,0,0,1-.61.1.21.21,0,0,1-.2-.3,2.08,2.08,0,0,1,.22-.38,7.5,7.5,0,0,1,1.35-1.35,8.89,8.89,0,0,1,3.8-1.69,10.72,10.72,0,0,1,3.2-.11,9.51,9.51,0,0,1,2.73.73,7.56,7.56,0,0,1,3.07,2.32l0,0c.23.3.3.56.17.66s-.4,0-.59,0a20.39,20.39,0,0,0-2.9-.58c-1.12-.15-2.25-.24-3.38-.3Z" transform="translate(-87.97 -5.47)"/><path class="cls-3" d="M152,35.29a9,9,0,0,1,3.8.86,8.18,8.18,0,0,1,2.74,2.07,3.39,3.39,0,0,1,.37.56.29.29,0,0,1,0,.35.24.24,0,0,1-.29,0,16.57,16.57,0,0,0-2.21-.54,14.05,14.05,0,0,0-1.47-.2,27.15,27.15,0,0,0-4.13-.2c-.84,0-1.67.17-2.51.25l-.31.05a18,18,0,0,0-3.25.65l-.12,0a.27.27,0,0,1-.28-.09.24.24,0,0,1,0-.29,5.39,5.39,0,0,1,1.06-1.27,9.06,9.06,0,0,1,2.91-1.73A10.42,10.42,0,0,1,152,35.29Z" transform="translate(-87.97 -5.47)"/><path class="cls-6" d="M132.72,43.83a2.94,2.94,0,0,0-4.58-.2,3.23,3.23,0,0,0-.89,2.41,3.29,3.29,0,0,0,.56,2,3.06,3.06,0,0,0,2.22,1.4,2.85,2.85,0,0,0,2.32-.78A3.56,3.56,0,0,0,132.72,43.83ZM130,46a1,1,0,0,1-.55-.37,1.34,1.34,0,0,1,.43-2.09.89.89,0,0,1,.84,0A1.3,1.3,0,0,1,130,46Z" transform="translate(-87.97 -5.47)"/><path class="cls-6" d="M155.28,44.17a2.93,2.93,0,0,0-2.63-1.56,3.54,3.54,0,0,0-.86.09,3.3,3.3,0,0,0-2.28,3.14,3.46,3.46,0,0,0,1.09,2.72A3,3,0,0,0,154,49a3.11,3.11,0,0,0,1.67-2.31A3.68,3.68,0,0,0,155.28,44.17Zm-2.89,1.59a1.12,1.12,0,0,1-1.28.11,1.19,1.19,0,0,1-.66-1.09,1.24,1.24,0,0,1,.25-.81,1.19,1.19,0,0,1,1.23-.52,1.36,1.36,0,0,1,.9,1.21A1.27,1.27,0,0,1,152.39,45.76Z" transform="translate(-87.97 -5.47)"/><path class="cls-7" d="M135.12,69.65l1.06.33a11.07,11.07,0,0,0,3.7.55c.62,0,1.24,0,1.85,0a8.94,8.94,0,0,0,1.71-.26,17,17,0,0,0,2.19-.62l.07.25a4.9,4.9,0,0,1-1.77,1.79,9,9,0,0,1-1.18.64,2.53,2.53,0,0,1-1.29.36c-.21,0-.44.09-.66.1a3,3,0,0,1-1.16-.1,3.18,3.18,0,0,1-1.65-.4,7,7,0,0,1-2.48-1.78A1.22,1.22,0,0,1,135.12,69.65Z" transform="translate(-87.97 -5.47)"/><path class="cls-7" d="M147.26,65.75a3.51,3.51,0,0,1-.87.85,7,7,0,0,1-1.2.59,15.66,15.66,0,0,1-1.91.47,14,14,0,0,1-3.87.21,13.68,13.68,0,0,1-2.91-.46,7.9,7.9,0,0,1-1.7-.7,2.13,2.13,0,0,1-.93-.88.32.32,0,0,0-.22-.19c0-.16-.06-.33.1-.5.22.12.46.23.69.36a4,4,0,0,0,1.38.47.55.55,0,0,1,.29.09,1.29,1.29,0,0,0,.86.28.23.23,0,0,1,.12,0c.36.29.79.16,1.18.24a14.17,14.17,0,0,0,2.52.1,2.67,2.67,0,0,0,.74-.08,2,2,0,0,1,.49,0,7.55,7.55,0,0,0,2.4-.44c.16-.06.32-.08.48-.13a5.42,5.42,0,0,0,1.25-.49c.29-.18.64-.15.91-.37.08-.07.27,0,.26.17A2,2,0,0,1,147.26,65.75Z" transform="translate(-87.97 -5.47)"/><path class="cls-7" d="M144.27,100.34a.61.61,0,0,1-.07.35c-.21.18-.22.27-.07.51a3.91,3.91,0,0,1,0,.48c-.08.49-.17,1-.26,1.48-.17.1-.18.14-.06.27a4.61,4.61,0,0,1-.18,1c-.18.1-.18.13-.06.27a1.78,1.78,0,0,1-.08.72c-.17.1-.17.13-.06.26a18.62,18.62,0,0,1-.43,2.46c-.16.1-.17.13,0,.27a.61.61,0,0,1-.06.35c-.2.15-.21.2-.06.39a3.47,3.47,0,0,1-.08.79c-.12.62-.23,1.25-.33,1.87a2.3,2.3,0,0,0,0,.37l-.23,0a.88.88,0,0,1-.1-.56c0-.64,0-1.28,0-1.92,0-2.3-.05-4.61-.08-6.92,0-.8,0-1.6-.06-2.41-.06-1.52-.09-3-.19-4.56-.07-1.11-.13-2.22-.21-3.33-.11-1.33-.28-2.66-.43-4-.06-.59-.16-1.18-.23-1.77,0-.2,0-.41,0-.62a1.52,1.52,0,0,0,.58-1,.38.38,0,0,1,.26.13c.62.77,1.28,1.5,1.92,2.25.52.6,1.06,1.19,1.53,1.84a8.47,8.47,0,0,1,.74,1c0,.17-.07.28-.09.42a.2.2,0,0,0,.09.21,2.17,2.17,0,0,1,0,.36c-.09.5-.2,1-.29,1.48-.18.1-.18.14-.05.27a3.67,3.67,0,0,1-.19,1.09c-.18.1-.19.13-.06.27a4,4,0,0,1-.16,1.19,5.2,5.2,0,0,1-.18.89c-.16.11-.17.14,0,.27a1.38,1.38,0,0,1-.07.6c-.17.1-.17.13-.06.26l-.19.85c-.19.18-.2.28-.05.51a2.07,2.07,0,0,1-.19,1C144.13,100.09,144.12,100.14,144.27,100.34Z" transform="translate(-87.97 -5.47)"/><path class="cls-7" d="M131.31,90.23c.07,0,.17,0,.21-.11.2-.29.46-.52.68-.79.58-.69,1.15-1.38,1.72-2.08.3-.36.58-.74.89-1.09s.51-.54.77-.8a.69.69,0,0,1,.34-.14,1,1,0,0,0,.38.81.47.47,0,0,1,.19.54c-.12.53-.16,1.06-.23,1.59-.13,1.06-.28,2.12-.33,3.19,0,.76-.18,1.51-.21,2.27,0,1.22-.14,2.43-.17,3.64,0,.7-.11,1.4-.14,2.09,0,1.26-.07,2.52-.09,3.77,0,2-.07,3.91-.09,5.87,0,.9,0,1.81,0,2.72,0,.22,0,.45,0,.67s-.12.15-.23.15c-.09-.59-.16-1.18-.26-1.77-.16-1-.33-1.9-.49-2.85s-.36-2.14-.55-3.22l-.18-1.09-.48-2.92c-.2-1.21-.39-2.43-.6-3.65a3.4,3.4,0,0,1-.16-.9c.13-.13.13-.16,0-.26a18.08,18.08,0,0,1-.38-2.3c.07-.1.07-.19,0-.26a10.32,10.32,0,0,1-.32-2,.15.15,0,0,0-.05-.24l-.18-.65Z" transform="translate(-87.97 -5.47)"/><path class="cls-3" d="M142.14,113.69a.26.26,0,0,1,.15.25,3,3,0,0,1-.28,1.48.58.58,0,0,0-.08.23,6.78,6.78,0,0,1-.14,1.28,14,14,0,0,1-.3,1.57,1.22,1.22,0,0,0-.06.42,6.7,6.7,0,0,1-.16,1.41c0,.34-.08.69-.1,1a.56.56,0,0,1-.49.26c.11-.83.33-1.64.39-2.48a2.67,2.67,0,0,1,.08-.48c.23-1,.38-2,.51-3,.07-.54.18-1.08.28-1.63A.46.46,0,0,1,142.14,113.69Z" transform="translate(-87.97 -5.47)"/><path class="cls-3" d="M137,124.33c-.08,0-.18,0-.21-.1-.1-.35-.19-.71-.3-1.06a2.57,2.57,0,0,1-.12-.91,1.62,1.62,0,0,0-.17-.82,3.69,3.69,0,0,1-.19-1c-.09-.52-.16-1.05-.24-1.57,0-.18,0-.23.25-.34a.29.29,0,0,1,.13.19c.15,1,.34,2,.46,3a13.44,13.44,0,0,0,.31,1.68A2.45,2.45,0,0,1,137,124.33Z" transform="translate(-87.97 -5.47)"/><path class="cls-3" d="M140.12,126.12a.84.84,0,0,1,0,.6,3.65,3.65,0,0,0-.1,1.27,1.79,1.79,0,0,1-.49,1.26s-.08,0-.12,0c-.08-.29.1-.56.09-.85a1.37,1.37,0,0,1,.17-.83,1.06,1.06,0,0,0,.06-.48,2.68,2.68,0,0,1,.14-.79A.32.32,0,0,1,140.12,126.12Z" transform="translate(-87.97 -5.47)"/><path class="cls-3" d="M135.94,118c-.05,0-.13-.06-.15-.1-.11-.3-.2-.62-.32-.92a2.24,2.24,0,0,1-.06-1.09c0-.05.07-.09.11-.13a18,18,0,0,1,.46,2.06A.39.39,0,0,1,135.94,118Z" transform="translate(-87.97 -5.47)"/><path class="cls-3" d="M137.44,126.69s-.09,0-.11,0a3.15,3.15,0,0,1-.46-1.89.24.24,0,0,1,.14-.18s.07.06.07.09a14.22,14.22,0,0,0,.37,1.72A1,1,0,0,1,137.44,126.69Z" transform="translate(-87.97 -5.47)"/><path class="cls-3" d="M135.5,115.43a.35.35,0,0,1-.37-.34v-.25a3.28,3.28,0,0,0-.1-1c0-.1,0-.19.13-.24a.61.61,0,0,1,.18.43A8.58,8.58,0,0,1,135.5,115.43Z" transform="translate(-87.97 -5.47)"/><path class="cls-3" d="M140.52,123.21c.1.05.18.14.14.24a2.45,2.45,0,0,0-.1.85.36.36,0,0,1-.35.41A3.7,3.7,0,0,1,140.52,123.21Z" transform="translate(-87.97 -5.47)"/><path class="cls-8" d="M137.65,82.82c0-.31,0-.35.34-.4A.43.43,0,0,1,137.65,82.82Z" transform="translate(-87.97 -5.47)"/><path class="cls-2" d="M128.9,82.79c.12,0,.14.13.17.23.18.64.38,1.27.56,1.91a.38.38,0,0,1,0,.17,9.7,9.7,0,0,1-.43-1.32C129,83.46,129,83.12,128.9,82.79Z" transform="translate(-87.97 -5.47)"/><path class="cls-2" d="M130.55,88.36a3.39,3.39,0,0,1,.42,1.42A4.22,4.22,0,0,1,130.55,88.36Z" transform="translate(-87.97 -5.47)"/><path class="cls-2" d="M129.69,85.39a1.91,1.91,0,0,1,.28.94A1.84,1.84,0,0,1,129.69,85.39Z" transform="translate(-87.97 -5.47)"/><path class="cls-2" d="M130.05,86.63a1.07,1.07,0,0,1,.22.79A1.39,1.39,0,0,1,130.05,86.63Z" transform="translate(-87.97 -5.47)"/><path class="cls-2" d="M130.43,87.86c.09,0,.12.1.06.19S130.38,88,130.43,87.86Z" transform="translate(-87.97 -5.47)"/><path class="cls-2" d="M131.45,91.08a.15.15,0,0,1,.05.24C131.4,91.26,131.34,91.19,131.45,91.08Z" transform="translate(-87.97 -5.47)"/><path class="cls-2" d="M131.31,90.23l0,.2a.18.18,0,0,1-.15-.22Z" transform="translate(-87.97 -5.47)"/><path class="cls-4" d="M132.24,95.87c.17.1.17.13,0,.26A.17.17,0,0,1,132.24,95.87Z" transform="translate(-87.97 -5.47)"/><path class="cls-2" d="M131.82,93.31c.11.07.11.16,0,.26C131.75,93.49,131.72,93.41,131.82,93.31Z" transform="translate(-87.97 -5.47)"/><path class="cls-4" d="M144.13,101.2c-.15-.24-.14-.33.07-.51A.48.48,0,0,1,144.13,101.2Z" transform="translate(-87.97 -5.47)"/><path class="cls-4" d="M144.51,99c-.15-.23-.14-.33.05-.51A.44.44,0,0,1,144.51,99Z" transform="translate(-87.97 -5.47)"/><path class="cls-4" d="M144.27,100.34c-.15-.2-.14-.25,0-.39A.35.35,0,0,1,144.27,100.34Z" transform="translate(-87.97 -5.47)"/><path class="cls-4" d="M142.78,109.12c-.15-.19-.14-.24.06-.39A.29.29,0,0,1,142.78,109.12Z" transform="translate(-87.97 -5.47)"/><path class="cls-4" d="M142.9,108.38c-.12-.14-.11-.17,0-.27A.19.19,0,0,1,142.9,108.38Z" transform="translate(-87.97 -5.47)"/><path class="cls-4" d="M145.51,93c-.13-.13-.13-.17.05-.27A.18.18,0,0,1,145.51,93Z" transform="translate(-87.97 -5.47)"/><path class="cls-4" d="M143.38,105.65c-.11-.13-.11-.16.06-.26A.17.17,0,0,1,143.38,105.65Z" transform="translate(-87.97 -5.47)"/><path class="cls-4" d="M143.52,104.67c-.12-.14-.12-.17.06-.27A.2.2,0,0,1,143.52,104.67Z" transform="translate(-87.97 -5.47)"/><path class="cls-4" d="M143.76,103.43c-.12-.13-.11-.17.06-.27A.17.17,0,0,1,143.76,103.43Z" transform="translate(-87.97 -5.47)"/><path class="cls-4" d="M145.26,94.4c-.13-.14-.12-.17.06-.27A.19.19,0,0,1,145.26,94.4Z" transform="translate(-87.97 -5.47)"/><path class="cls-4" d="M144.75,97.61c-.11-.13-.11-.16.06-.26A.18.18,0,0,1,144.75,97.61Z" transform="translate(-87.97 -5.47)"/><path class="cls-4" d="M144.88,96.75c-.13-.13-.12-.16,0-.27A.17.17,0,0,1,144.88,96.75Z" transform="translate(-87.97 -5.47)"/><path class="cls-7" d="M131.52,44.69A1.22,1.22,0,0,1,130,46a1.06,1.06,0,0,1-.55-.37,1.35,1.35,0,0,1,.43-2.1.92.92,0,0,1,.84,0A1.19,1.19,0,0,1,131.52,44.69Z" transform="translate(-87.97 -5.47)"/><path class="cls-7" d="M150.45,44.78a1.27,1.27,0,0,1,.25-.81,1.2,1.2,0,0,1,1.23-.51,1.35,1.35,0,0,1,.9,1.2,1.27,1.27,0,0,1-.44,1.1,1.14,1.14,0,0,1-1.28.12A1.19,1.19,0,0,1,150.45,44.78Z" transform="translate(-87.97 -5.47)"/></svg>